<svg width="108" height="48" xmlns="http://www.w3.org/2000/svg"><g transform="translate(2 2)" fill="none" fill-rule="evenodd"><path d="M17.343.495h5.943a.99.99 0 0 1 .99.99v2.972h-7.923V1.486a.99.99 0 0 1 .99-.99Z" fill="#FFF" fill-rule="nonzero"/><path d="M21.543.495v3.962h2.724V1.238a.872.872 0 0 0-.99-.743h-1.734Z" stroke="#231F20" fill="#231F20" fill-rule="nonzero" opacity=".1" stroke-linecap="round" stroke-linejoin="round"/><path d="M17.343.495h5.943a.99.99 0 0 1 .99.99v2.972h-7.923V1.486a.99.99 0 0 1 .99-.99Z" stroke="#7C87A5" stroke-linecap="round" stroke-linejoin="round"/><path d="M12.381 4.457h69.333c1.094 0 1.981.887 1.981 1.981v17.829H.495v-7.924c0-6.564 5.322-11.886 11.886-11.886Z" stroke="#7C87A5" fill="#FFF" fill-rule="nonzero" stroke-linecap="round" stroke-linejoin="round"/><path d="M26.248 4.457a11.886 11.886 0 0 0-10.955 7.29.99.99 0 0 1-.931.634H8.617a.99.99 0 0 1-.901-1.416 11.886 11.886 0 0 1 10.608-6.508h7.924Z" stroke="#3D79CC" fill="#4C97FF" fill-rule="nonzero" opacity=".75" stroke-linecap="round" stroke-linejoin="round"/><path d="M97.562 6.438v17.829h-7.924V6.438a1.981 1.981 0 0 0-1.98-1.98h7.923c1.094 0 1.98.886 1.98 1.98Z" stroke="#7C87A5" fill="#FFF" fill-rule="nonzero" stroke-linecap="round" stroke-linejoin="round"/><path d="M82.705 44.076H1.485a.99.99 0 0 1-.99-.99V16.343h72.473c1.794 0 3.515.713 4.784 1.98a6.775 6.775 0 0 0 4.784 1.982h1.16v22.78a.99.99 0 0 1-.991.991Z" stroke="#7C87A5" fill="#E6E7E8" fill-rule="nonzero" stroke-linecap="round" stroke-linejoin="round"/><path d="M88.658.495H94.6a.99.99 0 0 1 .99.99v2.972h-7.923V1.486a.99.99 0 0 1 .99-.99Z" fill="#FFF" fill-rule="nonzero"/><path d="M92.857.495v3.962h2.724V1.238a.872.872 0 0 0-.99-.743h-1.734Z" stroke="#231F20" fill="#231F20" fill-rule="nonzero" opacity=".1" stroke-linecap="round" stroke-linejoin="round"/><path d="M88.658.495H94.6a.99.99 0 0 1 .99.99v2.972h-7.923V1.486a.99.99 0 0 1 .99-.99Z" stroke="#7C87A5" stroke-linecap="round" stroke-linejoin="round"/><path d="M76.772.495h5.943a.99.99 0 0 1 .99.99v2.972h-7.924V1.486a.99.99 0 0 1 .99-.99Z" fill="#FFF" fill-rule="nonzero"/><path d="M80.971.495v3.962h2.724V1.238a.872.872 0 0 0-.99-.743H80.97Z" stroke="#231F20" fill="#231F20" fill-rule="nonzero" opacity=".1" stroke-linecap="round" stroke-linejoin="round"/><path d="M76.772.495h5.943a.99.99 0 0 1 .99.99v2.972h-7.924V1.486a.99.99 0 0 1 .99-.99Z" stroke="#7C87A5" stroke-linecap="round" stroke-linejoin="round"/><path d="M64.886.495h5.943a.99.99 0 0 1 .99.99v2.972h-7.923V1.486a.99.99 0 0 1 .99-.99Z" fill="#FFF" fill-rule="nonzero"/><path d="M69.086.495v3.962h2.724V1.238a.872.872 0 0 0-.991-.743h-1.733Z" stroke="#231F20" fill="#231F20" fill-rule="nonzero" opacity=".1" stroke-linecap="round" stroke-linejoin="round"/><path d="M64.886.495h5.943a.99.99 0 0 1 .99.99v2.972h-7.923V1.486a.99.99 0 0 1 .99-.99Z" stroke="#7C87A5" stroke-linecap="round" stroke-linejoin="round"/><path d="M53 .495h5.943a.99.99 0 0 1 .99.99v2.972H52.01V1.486a.99.99 0 0 1 .99-.99Z" fill="#FFF" fill-rule="nonzero"/><path d="M57.2.495v3.962h2.724V1.238a.872.872 0 0 0-.99-.743H57.2Z" stroke="#231F20" fill="#231F20" fill-rule="nonzero" opacity=".1" stroke-linecap="round" stroke-linejoin="round"/><path d="M53 .495h5.943a.99.99 0 0 1 .99.99v2.972H52.01V1.486a.99.99 0 0 1 .99-.99Z" stroke="#7C87A5" stroke-linecap="round" stroke-linejoin="round"/><path d="M41.115.495h5.943a.99.99 0 0 1 .99.99v2.972h-7.924V1.486a.99.99 0 0 1 .99-.99Z" fill="#FFF" fill-rule="nonzero"/><path d="M45.314.495v3.962h2.724V1.238a.872.872 0 0 0-.99-.743h-1.734Z" stroke="#231F20" fill="#231F20" fill-rule="nonzero" opacity=".1" stroke-linecap="round" stroke-linejoin="round"/><path d="M41.115.495h5.943a.99.99 0 0 1 .99.99v2.972h-7.924V1.486a.99.99 0 0 1 .99-.99Z" stroke="#7C87A5" stroke-linecap="round" stroke-linejoin="round"/><path d="M29.229.495h5.943a.99.99 0 0 1 .99.99v2.972h-7.924V1.486a.99.99 0 0 1 .991-.99Z" fill="#FFF" fill-rule="nonzero"/><path d="M33.429.495v3.962h2.723V1.238a.872.872 0 0 0-.99-.743h-1.733Z" stroke="#231F20" fill="#231F20" fill-rule="nonzero" opacity=".1" stroke-linecap="round" stroke-linejoin="round"/><path d="M29.229.495h5.943a.99.99 0 0 1 .99.99v2.972h-7.924V1.486a.99.99 0 0 1 .991-.99Z" stroke="#7C87A5" stroke-linecap="round" stroke-linejoin="round"/><path d="M32.19 4.457h69.334c1.094 0 1.98.887 1.98 1.981v17.829h-83.2v-7.924c0-6.564 5.322-11.886 11.886-11.886Z" stroke="#7C87A5" fill="#FFF" fill-rule="nonzero" stroke-linecap="round" stroke-linejoin="round"/><path d="M102.514 44.076H21.295a.99.99 0 0 1-.99-.99V16.343h72.473c1.794 0 3.514.713 4.784 1.98a6.775 6.775 0 0 0 4.784 1.982h1.159v22.78a.99.99 0 0 1-.99.991Z" stroke="#7C87A5" fill="#E6E7E8" fill-rule="nonzero" stroke-linecap="round" stroke-linejoin="round"/><rect stroke="#7C87A5" fill="#E6E7E8" fill-rule="nonzero" stroke-linecap="round" stroke-linejoin="round" x="36.152" y="16.343" width="51.505" height="15.848" rx="1"/><path stroke="#7C87A5" stroke-linecap="round" stroke-linejoin="round" d="m91.619 16.343 3.962-3.962h7.924"/><path d="M87.657 16.343V31.2a.99.99 0 0 1-.99.99H37.143a.99.99 0 0 1-.99-.99v-2.971h44.64c1.603 0 2.902-1.3 2.902-2.903v-8.983h3.962Z" stroke="#231F20" fill="#231F20" fill-rule="nonzero" opacity=".1" stroke-linecap="round" stroke-linejoin="round"/><path d="M103.505 6.438v36.648a.99.99 0 0 1-.99.99h-81.22a.99.99 0 0 1-.99-.99v-2.972H96.64c1.603 0 2.902-1.299 2.902-2.902V4.457h1.98c1.095 0 1.982.887 1.982 1.981Z" stroke="#231F20" fill="#231F20" fill-rule="nonzero" opacity=".1" stroke-linecap="round" stroke-linejoin="round"/><path d="M32.19 4.457c-6.564 0-11.885 5.322-11.885 11.886v26.743a.99.99 0 0 1-.99.99H1.484a.99.99 0 0 1-.99-.99v-2.972h12.946c1.603 0 2.902-1.299 2.902-2.902v-20.87c0-6.563 5.321-11.885 11.886-11.885h3.961Z" stroke="#231F20" fill="#231F20" fill-rule="nonzero" opacity=".1" stroke-linecap="round" stroke-linejoin="round"/><path d="M76.772 12.381h5.943a.99.99 0 0 1 .99.99v2.972h-7.924V13.37a.99.99 0 0 1 .99-.99Z" fill="#E6E7E8" fill-rule="nonzero"/><path d="M80.971 12.381v3.962h2.724v-3.22a.872.872 0 0 0-.99-.742H80.97Z" stroke="#231F20" fill="#231F20" fill-rule="nonzero" opacity=".1" stroke-linecap="round" stroke-linejoin="round"/><path d="M76.772 12.381h5.943a.99.99 0 0 1 .99.99v2.972h-7.924V13.37a.99.99 0 0 1 .99-.99Z" stroke="#7C87A5" stroke-linecap="round" stroke-linejoin="round"/><path d="M41.115 12.381h5.943a.99.99 0 0 1 .99.99v2.972h-7.924V13.37a.99.99 0 0 1 .99-.99Z" fill="#E6E7E8" fill-rule="nonzero"/><path d="M45.314 12.381v3.962h2.724v-3.22a.872.872 0 0 0-.99-.742h-1.734Z" stroke="#231F20" fill="#231F20" fill-rule="nonzero" opacity=".1" stroke-linecap="round" stroke-linejoin="round"/><path d="M41.115 12.381h5.943a.99.99 0 0 1 .99.99v2.972h-7.924V13.37a.99.99 0 0 1 .99-.99Z" stroke="#7C87A5" stroke-linecap="round" stroke-linejoin="round"/><path d="M64.886 12.381h5.943a.99.99 0 0 1 .99.99v2.972h-7.923V13.37a.99.99 0 0 1 .99-.99Z" fill="#E6E7E8" fill-rule="nonzero"/><path d="M69.086 12.381v3.962h2.724v-3.22a.872.872 0 0 0-.991-.742h-1.733Z" stroke="#231F20" fill="#231F20" fill-rule="nonzero" opacity=".1" stroke-linecap="round" stroke-linejoin="round"/><path d="M64.886 12.381h5.943a.99.99 0 0 1 .99.99v2.972h-7.923V13.37a.99.99 0 0 1 .99-.99Z" stroke="#7C87A5" stroke-linecap="round" stroke-linejoin="round"/><path d="M53 12.381h5.943a.99.99 0 0 1 .99.99v2.972H52.01V13.37a.99.99 0 0 1 .99-.99Z" fill="#E6E7E8" fill-rule="nonzero"/><path d="M57.2 12.381v3.962h2.724v-3.22a.872.872 0 0 0-.99-.742H57.2Z" stroke="#231F20" fill="#231F20" fill-rule="nonzero" opacity=".1" stroke-linecap="round" stroke-linejoin="round"/><path d="M53 12.381h5.943a.99.99 0 0 1 .99.99v2.972H52.01V13.37a.99.99 0 0 1 .99-.99Z" stroke="#7C87A5" stroke-linecap="round" stroke-linejoin="round"/><circle stroke="#7C87A5" stroke-linecap="round" stroke-linejoin="round" cx="49.801" cy="23.643" r="4.596"/><circle fill="#7C87A5" fill-rule="nonzero" cx="49.801" cy="23.643" r="3.249"/><circle stroke="#231F20" fill="#231F20" fill-rule="nonzero" opacity=".1" stroke-linecap="round" stroke-linejoin="round" cx="49.801" cy="23.643" r="4.596"/><circle stroke="#7C87A5" stroke-linecap="round" stroke-linejoin="round" cx="61.905" cy="23.643" r="4.596"/><circle fill="#7C87A5" fill-rule="nonzero" cx="61.905" cy="23.643" r="3.249"/><circle stroke="#231F20" fill="#231F20" fill-rule="nonzero" opacity=".1" stroke-linecap="round" stroke-linejoin="round" cx="61.905" cy="23.643" r="4.596"/><circle stroke="#7C87A5" stroke-linecap="round" stroke-linejoin="round" cx="74.008" cy="23.643" r="4.596"/><circle fill="#7C87A5" fill-rule="nonzero" cx="74.008" cy="23.643" r="3.249"/><circle stroke="#231F20" fill="#231F20" fill-rule="nonzero" opacity=".1" stroke-linecap="round" stroke-linejoin="round" cx="74.008" cy="23.643" r="4.596"/></g></svg>