<svg xmlns="http://www.w3.org/2000/svg" width="204" height="72"><g fill="none" fill-rule="evenodd"><path fill="#FFF" fill-rule="nonzero" stroke="#7C87A5" stroke-linecap="round" stroke-linejoin="round" d="M100 24h100v40H100z"/><path fill="#FFF" fill-rule="nonzero" d="M76 8h-8V5c0-.6.5-1 1-1h6c.6 0 1 .5 1 1v3z"/><path fill="#231F20" fill-rule="nonzero" stroke="#231F20" stroke-linecap="round" stroke-linejoin="round" d="M73.3 4v4H76V4.7c0-.4-.4-.7-1-.7h-1.7z" opacity=".1"/><path stroke="#7C87A5" stroke-linecap="round" stroke-linejoin="round" d="M76 8h-8V5c0-.6.5-1 1-1h6c.6 0 1 .5 1 1v3z"/><path fill="#FFF" fill-rule="nonzero" d="M64 8h-8V5c0-.6.5-1 1-1h6c.5 0 1 .5 1 1v3z"/><path fill="#231F20" fill-rule="nonzero" stroke="#231F20" stroke-linecap="round" stroke-linejoin="round" d="M61.3 4v4H64V4.7c0-.4-.4-.7-1-.7h-1.7z" opacity=".1"/><path stroke="#7C87A5" stroke-linecap="round" stroke-linejoin="round" d="M64 8h-8V5c0-.6.5-1 1-1h6c.5 0 1 .5 1 1v3z"/><path fill="#FFF" fill-rule="nonzero" d="M52 8h-8V5c0-.6.5-1 1-1h6c.5 0 1 .5 1 1v3z"/><path fill="#231F20" fill-rule="nonzero" stroke="#231F20" stroke-linecap="round" stroke-linejoin="round" d="M49.3 4v4H52V4.7c0-.4-.4-.7-1-.7h-1.7z" opacity=".1"/><path stroke="#7C87A5" stroke-linecap="round" stroke-linejoin="round" d="M52 8h-8V5c0-.6.5-1 1-1h6c.5 0 1 .5 1 1v3z"/><path fill="#FFF" fill-rule="nonzero" d="M40 8h-8V5c0-.6.5-1 1-1h6c.5 0 1 .5 1 1v3z"/><path fill="#231F20" fill-rule="nonzero" stroke="#231F20" stroke-linecap="round" stroke-linejoin="round" d="M37.3 4v4H40V4.7c0-.4-.4-.7-1-.7h-1.7z" opacity=".1"/><path stroke="#7C87A5" stroke-linecap="round" stroke-linejoin="round" d="M40 8h-8V5c0-.6.5-1 1-1h6c.5 0 1 .5 1 1v3z"/><path fill="#FFF" fill-rule="nonzero" d="M28 8h-8V5c0-.6.5-1 1-1h6c.6 0 1 .5 1 1v3z"/><path fill="#231F20" fill-rule="nonzero" stroke="#231F20" stroke-linecap="round" stroke-linejoin="round" d="M25.3 4v4H28V4.7c0-.4-.4-.7-1-.7h-1.7z" opacity=".1"/><path stroke="#7C87A5" stroke-linecap="round" stroke-linejoin="round" d="M28 8h-8V5c0-.6.5-1 1-1h6c.6 0 1 .5 1 1v3z"/><path fill="#FFF" fill-rule="nonzero" d="M16 8H8V5c0-.6.5-1 1-1h6c.5 0 1 .5 1 1v3z"/><path fill="#231F20" fill-rule="nonzero" stroke="#231F20" stroke-linecap="round" stroke-linejoin="round" d="M13.3 4v4H16V4.7c0-.4-.4-.7-1-.7h-1.7z" opacity=".1"/><path stroke="#7C87A5" stroke-linecap="round" stroke-linejoin="round" d="M16 8H8V5c0-.6.5-1 1-1h6c.5 0 1 .5 1 1v3z"/><path fill="#FFF" fill-rule="nonzero" d="M172 8h-8V5c0-.6.5-1 1-1h6c.5 0 1 .5 1 1v3z"/><path fill="#231F20" fill-rule="nonzero" stroke="#231F20" stroke-linecap="round" stroke-linejoin="round" d="M169.3 4v4h2.7V4.7c0-.4-.4-.7-1-.7h-1.7z" opacity=".1"/><path stroke="#7C87A5" stroke-linecap="round" stroke-linejoin="round" d="M172 8h-8V5c0-.6.5-1 1-1h6c.5 0 1 .5 1 1v3z"/><path fill="#FFF" fill-rule="nonzero" d="M160 8h-8V5c0-.6.5-1 1-1h6c.5 0 1 .5 1 1v3z"/><path fill="#231F20" fill-rule="nonzero" stroke="#231F20" stroke-linecap="round" stroke-linejoin="round" d="M157.3 4v4h2.7V4.7c0-.4-.4-.7-1-.7h-1.7z" opacity=".1"/><path stroke="#7C87A5" stroke-linecap="round" stroke-linejoin="round" d="M160 8h-8V5c0-.6.5-1 1-1h6c.5 0 1 .5 1 1v3z"/><path fill="#FFF" fill-rule="nonzero" d="M148 8h-8V5c0-.6.5-1 1-1h6c.5 0 1 .5 1 1v3z"/><path fill="#231F20" fill-rule="nonzero" stroke="#231F20" stroke-linecap="round" stroke-linejoin="round" d="M145.3 4v4h2.7V4.7c0-.4-.4-.7-1-.7h-1.7z" opacity=".1"/><path stroke="#7C87A5" stroke-linecap="round" stroke-linejoin="round" d="M148 8h-8V5c0-.6.5-1 1-1h6c.5 0 1 .5 1 1v3z"/><path fill="#FFF" fill-rule="nonzero" d="M136 8h-8V5c0-.6.5-1 1-1h6c.5 0 1 .5 1 1v3z"/><path fill="#231F20" fill-rule="nonzero" stroke="#231F20" stroke-linecap="round" stroke-linejoin="round" d="M133.3 4v4h2.7V4.7c0-.4-.4-.7-1-.7h-1.7z" opacity=".1"/><path stroke="#7C87A5" stroke-linecap="round" stroke-linejoin="round" d="M136 8h-8V5c0-.6.5-1 1-1h6c.5 0 1 .5 1 1v3z"/><path fill="#FFF" fill-rule="nonzero" d="M124 8h-8V5c0-.6.5-1 1-1h6c.6 0 1 .5 1 1v3z"/><path fill="#231F20" fill-rule="nonzero" stroke="#231F20" stroke-linecap="round" stroke-linejoin="round" d="M121.3 4v4h2.7V4.7c0-.4-.4-.7-1-.7h-1.7z" opacity=".1"/><path stroke="#7C87A5" stroke-linecap="round" stroke-linejoin="round" d="M124 8h-8V5c0-.6.5-1 1-1h6c.6 0 1 .5 1 1v3z"/><path fill="#FFF" fill-rule="nonzero" d="M112 8h-8V5c0-.6.5-1 1-1h6c.6 0 1 .5 1 1v3z"/><path fill="#231F20" fill-rule="nonzero" stroke="#231F20" stroke-linecap="round" stroke-linejoin="round" d="M109.3 4v4h2.7V4.7c0-.4-.4-.7-1-.7h-1.7z" opacity=".1"/><path stroke="#7C87A5" stroke-linecap="round" stroke-linejoin="round" d="M112 8h-8V5c0-.6.5-1 1-1h6c.6 0 1 .5 1 1v3z"/><path fill="#FFF" fill-rule="nonzero" stroke="#7C87A5" stroke-linecap="round" stroke-linejoin="round" d="M198 8H6a2 2 0 0 0-2 2v14h196V10a2 2 0 0 0-2-2z"/><g stroke-linecap="round" stroke-linejoin="round"><path fill="#E6E7E8" fill-rule="nonzero" stroke="#7C87A5" d="M100 20h-2v-2H82v2h-2V10h20z"/><path fill="#7C87A5" fill-rule="nonzero" stroke="#7C87A5" d="M82 12.1h16V18H82z"/><path stroke="#E6E7E8" d="M84 17v-1m2 1v-1m4 1v-1m4 1v-1m-6 1v-1m4 1v-1m4 1v-1"/></g><path fill="#FFF" fill-rule="nonzero" d="M196 8h-8V5c0-.6.5-1 1-1h6c.5 0 1 .5 1 1v3z"/><path fill="#231F20" fill-rule="nonzero" stroke="#231F20" stroke-linecap="round" stroke-linejoin="round" d="M193.3 4v4h2.7V4.7c0-.4-.4-.7-1-.7h-1.7z" opacity=".1"/><path stroke="#7C87A5" stroke-linecap="round" stroke-linejoin="round" d="M196 8h-8V5c0-.6.5-1 1-1h6c.5 0 1 .5 1 1v3z"/><path fill="#231F20" fill-rule="nonzero" stroke="#231F20" stroke-linecap="round" stroke-linejoin="round" d="M200 24H4v-4h190a2 2 0 0 0 2-2V8h2a2 2 0 0 1 2 2v14z" opacity=".1"/><path fill="#FFF" fill-rule="nonzero" d="M184 8h-8V5c0-.6.5-1 1-1h6c.5 0 1 .5 1 1v3z"/><path fill="#231F20" fill-rule="nonzero" stroke="#231F20" stroke-linecap="round" stroke-linejoin="round" d="M181.3 4v4h2.7V4.7c0-.4-.4-.7-1-.7h-1.7z" opacity=".1"/><path stroke="#7C87A5" stroke-linecap="round" stroke-linejoin="round" d="M184 8h-8V5c0-.6.5-1 1-1h6c.5 0 1 .5 1 1v3z"/><path fill="#FFF" fill-rule="nonzero" d="M76 24h-8v-3c0-.6.5-1 1-1h6c.6 0 1 .5 1 1v3z"/><path fill="#231F20" fill-rule="nonzero" stroke="#231F20" stroke-linecap="round" stroke-linejoin="round" d="M73.3 20v4H76v-3.3c0-.4-.4-.7-1-.7h-1.7z" opacity=".1"/><path stroke="#7C87A5" stroke-linecap="round" stroke-linejoin="round" d="M76 24h-8v-3c0-.6.5-1 1-1h6c.6 0 1 .5 1 1v3z"/><path fill="#FFF" fill-rule="nonzero" d="M64 24h-8v-3c0-.6.5-1 1-1h6c.5 0 1 .5 1 1v3z"/><path fill="#231F20" fill-rule="nonzero" stroke="#231F20" stroke-linecap="round" stroke-linejoin="round" d="M61.3 20v4H64v-3.3c0-.4-.4-.7-1-.7h-1.7z" opacity=".1"/><path stroke="#7C87A5" stroke-linecap="round" stroke-linejoin="round" d="M64 24h-8v-3c0-.6.5-1 1-1h6c.5 0 1 .5 1 1v3z"/><path fill="#FFF" fill-rule="nonzero" d="M124 44h-8v-3c0-.6.5-1 1-1h6c.6 0 1 .5 1 1v3z"/><path fill="#231F20" fill-rule="nonzero" stroke="#231F20" stroke-linecap="round" stroke-linejoin="round" d="M121.3 40v4h2.7v-3.3c0-.4-.4-.7-1-.7h-1.7z" opacity=".1"/><path stroke="#7C87A5" stroke-linecap="round" stroke-linejoin="round" d="M124 44h-8v-3c0-.6.5-1 1-1h6c.6 0 1 .5 1 1v3z"/><path fill="#FFF" fill-rule="nonzero" d="M112 44h-8v-3c0-.6.5-1 1-1h6c.6 0 1 .5 1 1v3z"/><path fill="#231F20" fill-rule="nonzero" stroke="#231F20" stroke-linecap="round" stroke-linejoin="round" d="M109.3 40v4h2.7v-3.3c0-.4-.4-.7-1-.7h-1.7z" opacity=".1"/><path stroke="#7C87A5" stroke-linecap="round" stroke-linejoin="round" d="M112 44h-8v-3c0-.6.5-1 1-1h6c.6 0 1 .5 1 1v3z"/><path fill="#FFF" fill-rule="nonzero" d="M52 24h-8v-3c0-.6.5-1 1-1h6c.5 0 1 .5 1 1v3z"/><path fill="#231F20" fill-rule="nonzero" stroke="#231F20" stroke-linecap="round" stroke-linejoin="round" d="M49.3 20v4H52v-3.3c0-.4-.4-.7-1-.7h-1.7z" opacity=".1"/><path stroke="#7C87A5" stroke-linecap="round" stroke-linejoin="round" d="M52 24h-8v-3c0-.6.5-1 1-1h6c.5 0 1 .5 1 1v3z"/><path fill="#FFF" fill-rule="nonzero" d="M40 24h-8v-3c0-.6.5-1 1-1h6c.5 0 1 .5 1 1v3z"/><path fill="#231F20" fill-rule="nonzero" stroke="#231F20" stroke-linecap="round" stroke-linejoin="round" d="M37.3 20v4H40v-3.3c0-.4-.4-.7-1-.7h-1.7z" opacity=".1"/><path stroke="#7C87A5" stroke-linecap="round" stroke-linejoin="round" d="M40 24h-8v-3c0-.6.5-1 1-1h6c.5 0 1 .5 1 1v3z"/><path fill="#FFF" fill-rule="nonzero" d="M28 24h-8v-3c0-.6.5-1 1-1h6c.6 0 1 .5 1 1v3z"/><path fill="#231F20" fill-rule="nonzero" stroke="#231F20" stroke-linecap="round" stroke-linejoin="round" d="M25.3 20v4H28v-3.3c0-.4-.4-.7-1-.7h-1.7z" opacity=".1"/><path stroke="#7C87A5" stroke-linecap="round" stroke-linejoin="round" d="M28 24h-8v-3c0-.6.5-1 1-1h6c.6 0 1 .5 1 1v3z"/><path fill="#FFF" fill-rule="nonzero" d="M16 24H8v-3c0-.6.5-1 1-1h6c.5 0 1 .5 1 1v3z"/><path fill="#231F20" fill-rule="nonzero" stroke="#231F20" stroke-linecap="round" stroke-linejoin="round" d="M13.3 20v4H16v-3.3c0-.4-.4-.7-1-.7h-1.7z" opacity=".1"/><path stroke="#7C87A5" stroke-linecap="round" stroke-linejoin="round" d="M16 24H8v-3c0-.6.5-1 1-1h6c.5 0 1 .5 1 1v3z"/><path fill="#E6E7E8" fill-rule="nonzero" stroke="#7C87A5" stroke-linecap="round" stroke-linejoin="round" d="M100 68H6a2 2 0 0 1-2-2v-2h84v-4h12v8z"/><path fill="#E6E7E8" fill-rule="nonzero" stroke="#7C87A5" stroke-linecap="round" stroke-linejoin="round" d="M4 36v28h84V44H64l-12-8zm96 32h98a2 2 0 0 0 2-2v-2H100v4z"/><path fill="#231F20" fill-rule="nonzero" stroke="#231F20" stroke-linecap="round" stroke-linejoin="round" d="M200 24v42a2 2 0 0 1-2 2h-98V24h4v14c0 1.1.9 2 2 2h24a2 2 0 0 1 2 2v16c0 1.1.9 2 2 2h8a2 2 0 0 0 2-2V42c0-1.1.9-2 2-2h48a2 2 0 0 0 2-2V24h4z" opacity=".1"/><path fill="#FFF" fill-rule="nonzero" stroke="#7C87A5" stroke-linecap="round" stroke-linejoin="round" d="M100 24H4v12h48l12 8h24v16h38a2 2 0 0 0 2-2V46a2 2 0 0 0-2-2h-26V24z"/><g transform="translate(12 44)"><circle cx="6" cy="6" r="6" fill="#CC4C23" fill-rule="nonzero"/><circle cx="6" cy="6" r="6" stroke="#231F20" stroke-linecap="round" stroke-linejoin="round" stroke-width="2" opacity=".1"/><path stroke="#414042" stroke-linecap="round" stroke-linejoin="round" d="M8 6H4m2 2V4"/></g><g transform="translate(109 46)"><circle cx="4.9" cy="5.4" r="4.6" stroke="#7C87A5" stroke-linecap="round" stroke-linejoin="round"/><circle cx="4.9" cy="5.4" r="3.3" fill="#7C87A5" fill-rule="nonzero"/><circle cx="4.9" cy="5.4" r="4.6" fill="#231F20" fill-rule="nonzero" stroke="#231F20" stroke-linecap="round" stroke-linejoin="round" opacity=".1"/></g><path fill="#FFF" fill-rule="nonzero" stroke="#7C87A5" stroke-linecap="round" stroke-linejoin="round" d="M149 44h50c.5 0 1 .5 1 1v14c0 .6-.5 1-1 1h-50a1 1 0 0 1-1-1V45c0-.5.5-1 1-1z"/><path fill="#231F20" fill-rule="nonzero" stroke="#231F20" stroke-linecap="round" stroke-linejoin="round" d="M200 44v15c0 .6-.5 1-1 1h-50a1 1 0 0 1-1-1v-3h45a3 3 0 0 0 3-3v-9h4z" opacity=".1"/><path fill="#FFF" fill-rule="nonzero" d="M196 44h-8v-3c0-.6.5-1 1-1h6c.6 0 1 .5 1 1v3z"/><path fill="#231F20" fill-rule="nonzero" stroke="#231F20" stroke-linecap="round" stroke-linejoin="round" d="M193.3 40v4h2.7v-3.3c0-.4-.4-.7-1-.7h-1.8z" opacity=".1"/><path stroke="#7C87A5" stroke-linecap="round" stroke-linejoin="round" d="M196 44h-8v-3c0-.6.5-1 1-1h6c.6 0 1 .5 1 1v3z"/><path fill="#FFF" fill-rule="nonzero" d="M160 44h-8v-3c0-.6.5-1 1-1h6c.5 0 1 .5 1 1v3z"/><path fill="#231F20" fill-rule="nonzero" stroke="#231F20" stroke-linecap="round" stroke-linejoin="round" d="M157.3 40v4h2.7v-3.3c0-.4-.4-.7-1-.7h-1.7z" opacity=".1"/><path stroke="#7C87A5" stroke-linecap="round" stroke-linejoin="round" d="M160 44h-8v-3c0-.6.5-1 1-1h6c.5 0 1 .5 1 1v3z"/><path fill="#FFF" fill-rule="nonzero" d="M184 44h-8v-3c0-.6.4-1 1-1h6c.5 0 1 .5 1 1v3z"/><path fill="#231F20" fill-rule="nonzero" stroke="#231F20" stroke-linecap="round" stroke-linejoin="round" d="M181.3 40v4h2.7v-3.3c0-.4-.4-.7-1-.7h-1.8z" opacity=".1"/><path stroke="#7C87A5" stroke-linecap="round" stroke-linejoin="round" d="M184 44h-8v-3c0-.6.4-1 1-1h6c.5 0 1 .5 1 1v3z"/><path fill="#FFF" fill-rule="nonzero" d="M172 44h-8v-3c0-.6.4-1 1-1h6c.5 0 1 .5 1 1v3z"/><path fill="#231F20" fill-rule="nonzero" stroke="#231F20" stroke-linecap="round" stroke-linejoin="round" d="M169.3 40v4h2.7v-3.3c0-.4-.4-.7-1-.7h-1.8z" opacity=".1"/><path stroke="#7C87A5" stroke-linecap="round" stroke-linejoin="round" d="M172 44h-8v-3c0-.6.4-1 1-1h6c.5 0 1 .5 1 1v3z"/><g transform="translate(157 46)"><circle cx="4.8" cy="5.4" r="4.6" stroke="#7C87A5" stroke-linecap="round" stroke-linejoin="round"/><circle cx="4.8" cy="5.4" r="3.3" fill="#7C87A5" fill-rule="nonzero"/><circle cx="4.8" cy="5.4" r="4.6" fill="#231F20" fill-rule="nonzero" stroke="#231F20" stroke-linecap="round" stroke-linejoin="round" opacity=".1"/></g><g transform="translate(169 46)"><circle cx="5" cy="5.4" r="4.6" stroke="#7C87A5" stroke-linecap="round" stroke-linejoin="round"/><circle cx="5" cy="5.4" r="3.3" fill="#7C87A5" fill-rule="nonzero"/><circle cx="5" cy="5.4" r="4.6" fill="#231F20" fill-rule="nonzero" stroke="#231F20" stroke-linecap="round" stroke-linejoin="round" opacity=".1"/></g><g transform="translate(181 46)"><circle cx="5.2" cy="5.4" r="4.6" stroke="#7C87A5" stroke-linecap="round" stroke-linejoin="round"/><circle cx="5.2" cy="5.4" r="3.3" fill="#7C87A5" fill-rule="nonzero"/><circle cx="5.2" cy="5.4" r="4.6" fill="#231F20" fill-rule="nonzero" stroke="#231F20" stroke-linecap="round" stroke-linejoin="round" opacity=".1"/></g><path fill="#231F20" fill-rule="nonzero" stroke="#231F20" stroke-linecap="round" stroke-linejoin="round" d="M100 68H6a2 2 0 0 1-2-2v-2h84v-4h12v8zm28-22v12a2 2 0 0 1-2 2H88v-4h34a2 2 0 0 0 2-2V44h2a2 2 0 0 1 2 2zm-41-3H64l-12-8H4v2h48l12 8h24v-1c0-.5-.5-1-1-1z" opacity=".1"/></g></svg>