<svg t="1702895213310" class="icon" viewBox="0 0 1024 1024" version="1.1" xmlns="http://www.w3.org/2000/svg" p-id="6864" width="50" height="50"><path d="M868.018201 392.930029h-79.379804V252.956975C789.432195 101.34155 665.070503 0 512.13208 0S234.567366 102.664546 234.567366 254.279972v138.650057h-79.379804A68.266631 68.266631 0 0 0 87.450129 460.932062v495.065377a68.266631 68.266631 0 0 0 68.531231 68.002032H868.018201a68.266631 68.266631 0 0 0 68.531231-68.002032V460.932062a68.266631 68.266631 0 0 0-68.531231-68.002033z m-317.519215 328.367789v108.221133a8.996378 8.996378 0 0 1-8.996378 8.996378h-59.005655a8.996378 8.996378 0 0 1-8.996377-8.996378v-108.221133a84.407192 84.407192 0 0 1-46.834085-74.881615 85.465589 85.465589 0 0 1 170.666579 0 83.877993 83.877993 0 0 1-46.834084 74.881615z m132.299673-326.515593H341.200902V243.695998c0-79.379804 76.73381-144.735843 170.931178-144.735842s170.931178 65.091439 170.931178 144.735842z" fill="#f4ea2a" p-id="6865"></path></svg>