<svg t="1721727878347" class="icon" viewBox="0 0 1024 1024" version="1.1" xmlns="http://www.w3.org/2000/svg" p-id="8722" width="50" height="50"><path d="M445.065366 718.798049a218.286829 217.287805 90 1 0 434.57561 0 218.286829 217.287805 90 1 0-434.57561 0Z" fill="#F4EDFF" p-id="8723"></path><path d="M396.878423 161.841951c46.921179 0 72.761943 25.28231 73.911821 67.262314l0.039961 2.955115v102.687719c10.694556-2.018029 22.751781-3.156917 36.168679-3.156918 30.681038 0 50.900293 13.716605 62.322138 37.54034 11.76551-3.503579 25.429167-4.907208 40.873085-3.459621 36.491364 3.42066 55.803504 23.10144 62.733737 57.881475 48.692449-1.596441 73.03168 29.421268 77.384429 85.868144l0.240765 3.472609c3.347731 54.285986 4.209889 81.270634 4.209889 140.005276 0 68.886728-15.854517 130.220831-42.296695 183.1931-9.28793 18.606829-19.263188 34.868948-29.282404 48.71243-6.129015 8.465733-11.015243 14.348987-14.024304 17.57184-6.628527 7.097069-17.620792 7.347824-24.551024 0.559453-6.496656-6.363785-7.118049-16.655735-1.708332-23.765791l3.956136-4.61849c2.513545-3.027044 5.349776-6.673483 8.42777-10.927328 8.915294-12.317971 17.875543-26.923707 26.259356-43.721304 24.050513-48.17895 38.491411-104.043395 38.491411-167.00391l-0.084917-27.677971c-0.281725-40.246697-1.328702-65.845698-4.056039-110.086493l-0.445565-5.999142c-3.110962-35.31751-13.678642-50.261916-39.49543-50.105069V561.261893c0 9.897335-8.126064 17.921499-18.150275 17.921498-9.433787 0-17.187216-7.108059-18.066357-16.196183l-0.083918-1.725315V458.50624c0-40.395551-8.381815-54.854431-32.889881-57.152187-11.060199-1.036987-20.229245-0.025975-27.659989 2.304749 1.098927 7.842341 1.698341 16.215165 1.822221 25.064523l0.023976 3.507575v95.472764c0 9.920312-7.969218 17.962459-17.800616 17.962459-9.252964 0-16.856539-7.123044-17.719696-16.232148l-0.080921-1.730311v-95.472764c0-12.337951-0.905116-22.841694-2.797268-31.572168a17.652761 17.652761 0 0 1-1.490545-5.824312c-5.505623-18.461971-16.505881-27.32032-34.060737-27.32032-14.236098 0-26.273342 1.498537-36.168679 3.974119v145.577834c0 9.870361-7.962224 17.872546-17.783633 17.872546-9.243973 0-16.840554-7.088078-17.702712-16.151227l-0.080921-1.721319-0.000999-148.917573-0.11289-0.209795c-2.947122-5.567563-2.695368-11.998283 0.11289-17.143259V232.05938c0-24.126439-10.1381-34.474334-38.382518-34.474334-27.335305 0-37.712172 9.690537-38.352546 32.182572l-0.031969 2.291762v422.234661c0 9.870361-7.962224 17.872546-17.784632 17.872546-9.243973 0-16.840554-7.088078-17.702712-16.151227l-0.080921-1.721319V494.237346c-6.703454-0.872148-16.949448-1.641397-24.768812-1.641397-18.375056 0-32.0517 14.548792-36.029814 43.554467l-0.965058 7.742439-0.415594 3.586497a805.995895 805.995895 0 0 0-2.244808 22.931606c-1.668371 19.818646-2.802263 40.836121-3.156917 62.359102-1.019005 61.669776 7.647532 90.29682 36.621237 131.677409 3.833257 5.474654 8.238954 11.219044 13.172137 17.196207 9.68754 11.73554 21.252246 24.178388 34.287516 37.063805 14.967383 14.793553 31.053674 29.377311 47.143961 43.087922l6.556597 5.536593a836.005588 836.005588 0 0 0 8.984226 7.414759l5.764371 4.626482c7.787395 6.104039 9.095118 17.296109 2.923145 24.997588-6.172972 7.70048-17.488921 8.994217-25.275317 2.890178l-6.265881-5.027091a920.39118 920.39118 0 0 1-16.174205-13.477838c-16.717674-14.246088-33.439344-29.406283-49.094056-44.879173-13.836488-13.676644-26.200414-26.979653-36.724137-39.728202-5.507621-6.672484-10.480765-13.157151-14.882466-19.443013-33.282498-47.53358-44.156878-83.4565-43.016991-152.517058 0.369639-22.361163 1.54649-44.160874 3.2768-64.729787l0.917104-10.211028c0.311696-3.26681 0.628386-6.393756 0.947075-9.372847l1.32071-11.403864c0.079922-0.626388 0.145858-1.113912 0.193811-1.449584 5.146974-47.233873 32.738029-78.011817 72.136554-78.011817 7.71047 0 16.78361 0.533479 24.768812 1.406627V232.05938c0-43.74528 25.939668-70.217428 73.951781-70.217429z" fill="#1C0E50" p-id="8724"></path><path d="M561.9712 164.747114l1.2288-1.333697 44.249787-43.383634c6.993171-6.856304 18.332098-6.856304 25.325269 0a17.307099 17.307099 0 0 1 1.2288 23.497054l-1.2288 1.332699-12.336953 12.094189H769.198829l-12.329959-12.094189c-6.993171-6.856304-6.993171-17.972449 0-24.829753 6.555598-6.427723 16.931465-6.829331 23.964597-1.204823l1.359673 1.204823 44.249787 43.383634a17.307099 17.307099 0 0 1 1.2288 23.496054l-1.2288 1.333698-44.249787 43.383633c-6.993171 6.856304-18.332098 6.856304-25.325269 0a17.307099 17.307099 0 0 1-1.2288-23.497054l1.2288-1.332698 12.336952-12.09319H620.432109l12.341948 12.09319a17.307099 17.307099 0 0 1 1.2288 23.496054l-1.2288 1.333698c-6.555598 6.427723-16.931465 6.829331-23.964597 1.204823l-1.359673-1.204823-44.249787-43.383633a17.307099 17.307099 0 0 1-1.2288-23.496055z" fill="#7E41DF" p-id="8725"></path></svg>