<svg t="1703579548237" class="icon" viewBox="0 0 1024 1024" version="1.1" xmlns="http://www.w3.org/2000/svg" p-id="10636" width="128" height="128"><path d="M585.140148 533.712593l333.539556 198.542222a37.925926 37.925926 0 0 0 57.325037-32.616296v-331.851852a37.925926 37.925926 0 0 0-57.325037-32.616297l-333.539556 198.542223z" fill="#0CCA8A" fill-opacity=".5" p-id="10637"></path><path d="M714.031407 208.004741a75.851852 75.851852 0 0 1 75.851852 75.851852v481.09037a75.851852 75.851852 0 0 1-75.851852 75.851852H139.851852a75.851852 75.851852 0 0 1-75.851852-75.851852V283.875556a75.851852 75.851852 0 0 1 75.851852-75.851852h574.179555zM362.496 383.81037a37.925926 37.925926 0 0 0-37.925926 37.925926v205.330963a37.925926 37.925926 0 0 0 56.50963 33.052445l182.518518-102.665482a37.925926 37.925926 0 0 0 0-66.104889l-182.499555-102.665481a37.925926 37.925926 0 0 0-18.583704-4.873482z" fill="#0CCA8A" p-id="10638"></path></svg>