<svg width="40" height="40" xmlns="http://www.w3.org/2000/svg"><g transform="translate(5.5 3.5)" fill-rule="nonzero" fill="none"><rect stroke="#7C87A5" fill="#FFF" stroke-linecap="round" stroke-linejoin="round" x=".5" y="3.59" width="28" height="25.81" rx="1"/><rect stroke="#7C87A5" fill="#E6E7E8" stroke-linecap="round" stroke-linejoin="round" x="2.5" y=".5" width="24" height="32" rx="1"/><path stroke="#7C87A5" fill="#FFF" stroke-linecap="round" stroke-linejoin="round" d="M2.5 14.5h24v13h-24z"/><path d="M14.5 10.5v4" stroke="#7C87A5" fill="#E6E7E8" stroke-linecap="round" stroke-linejoin="round"/><rect fill="#414757" x="4.5" y="2.5" width="20" height="10" rx="1"/><rect fill="#7C87A5" opacity=".5" x="13.5" y="20.13" width="2" height="2" rx=".5"/><path d="M9.06 20.13h1.5a.5.5 0 0 1 .5.5v1a.5.5 0 0 1-.5.5h-1.5a1 1 0 0 1 0-2ZM19.93 22.13h-1.51a.5.5 0 0 1-.5-.5v-1a.5.5 0 0 1 .5-.5h1.5a1 1 0 0 1 .01 2ZM8.23 17.5H5a.5.5 0 0 1-.5-.5v-2.5h6l-1.85 2.78a.51.51 0 0 1-.42.22ZM18.15 18.85l-.5.5a.49.49 0 0 0-.15.36V20a.5.5 0 0 1-.5.5h-.5a.5.5 0 0 1-.5-.5.5.5 0 0 0-.5-.5h-2a.5.5 0 0 0-.5.5.5.5 0 0 1-.5.5H12a.5.5 0 0 1-.5-.5v-.29a.49.49 0 0 0-.15-.36l-.5-.5a.51.51 0 0 1 0-.71l1.51-1.49a.47.47 0 0 1 .35-.15h3.58a.47.47 0 0 1 .35.15l1.51 1.49a.51.51 0 0 1 0 .71ZM10.85 23.45l.5-.5a.49.49 0 0 0 .15-.36v-.29a.5.5 0 0 1 .5-.5h.5a.5.5 0 0 1 .5.5.5.5 0 0 0 .5.5h2a.5.5 0 0 0 .5-.5.5.5 0 0 1 .5-.5h.5a.5.5 0 0 1 .5.5v.29a.49.49 0 0 0 .15.36l.5.5a.5.5 0 0 1 0 .7l-1.51 1.5a.47.47 0 0 1-.35.15h-3.58a.47.47 0 0 1-.35-.15l-1.51-1.5a.5.5 0 0 1 0-.7Z" fill="#7C87A5" opacity=".5"/><path d="M21.5 27.5h5v4a1 1 0 0 1-1 1h-4v-5Z" stroke="#CC4C23" fill="#F15A29" stroke-linecap="round" stroke-linejoin="round"/></g></svg>