<svg width="92" height="128" xmlns="http://www.w3.org/2000/svg"><g transform="translate(1 2)" fill="none" fill-rule="evenodd"><path stroke="#7C87A5" stroke-width=".86" fill="#FFF" fill-rule="nonzero" stroke-linecap="round" stroke-linejoin="round" d="M5.59 62.34h79.1v48.15H5.59z"/><path d="M5.59 110.48h79.1v12a1.72 1.72 0 0 1-1.69 1.76H7.31c-.95 0-1.72-.77-1.72-1.72v-12.04Z" stroke="#7C87A5" stroke-width=".86" fill="#E6E7E8" fill-rule="nonzero" stroke-linecap="round" stroke-linejoin="round"/><path d="M18.63 70.94h-7.89c-.95 0-1.72-.77-1.72-1.72v-6.88h13.76v4.44a1.72 1.72 0 0 1-.5 1.22l-2.43 2.43a1.73 1.73 0 0 1-1.22.51Z" stroke="#231F20" stroke-width="3.44" fill="#231F20" fill-rule="nonzero" opacity=".1" stroke-linecap="round" stroke-linejoin="round"/><path d="M2.15 17.63h3.44v86H2.15c-.95 0-1.72-.77-1.72-1.72V19.35c0-.95.77-1.72 1.72-1.72ZM84.69 17.63h3.44c.95 0 1.72.77 1.72 1.72v82.54c0 .95-.77 1.72-1.72 1.72h-3.44v-86 .02Z" stroke="#7C87A5" stroke-width=".86" fill="#FFF" fill-rule="nonzero" stroke-linecap="round" stroke-linejoin="round"/><path d="M18.63 70.94h-7.89c-.95 0-1.72-.77-1.72-1.72v-6.88h13.76v4.44a1.72 1.72 0 0 1-.5 1.22l-2.43 2.43a1.73 1.73 0 0 1-1.22.51Z" stroke="#7C87A5" stroke-width=".86" fill="#E6E7E8" fill-rule="nonzero" stroke-linecap="round" stroke-linejoin="round"/><path d="M84.68 62.34H5.58V2.15c0-.95.77-1.72 1.72-1.72h75.66c.95 0 1.72.77 1.72 1.72v60.19Z" stroke="#7C87A5" stroke-width=".86" fill="#E6E7E8" fill-rule="nonzero" stroke-linecap="round" stroke-linejoin="round"/><rect fill="#414757" fill-rule="nonzero" x="12.04" y="10.32" width="66.2" height="38.69" rx="3.01"/><path d="M75.23 10.75a2.58 2.58 0 0 1 2.62 2.58V46a2.58 2.58 0 0 1-2.58 2.58H15.04A2.58 2.58 0 0 1 12.46 46V13.33a2.58 2.58 0 0 1 2.58-2.58h60.19Zm0-.86H15.04a3.45 3.45 0 0 0-3.44 3.44V46a3.45 3.45 0 0 0 3.44 3.44h60.19A3.45 3.45 0 0 0 78.67 46V13.33a3.45 3.45 0 0 0-3.44-3.44Z" fill="#414757" fill-rule="nonzero"/><rect fill="#E6E7E8" fill-rule="nonzero" opacity=".5" x="15.91" y="12.47" width="58.46" height="34.39" rx="1.72"/><path d="M7.31.43H83c.95 0 1.72.77 1.72 1.72v1.72H5.59V2.15c0-.95.77-1.72 1.72-1.72ZM82.97 124.24H7.31c-.95 0-1.72-.77-1.72-1.72v-1.72h79.1v1.72c0 .95-.77 1.72-1.72 1.72Z" stroke="#231F20" stroke-width=".86" fill="#231F20" fill-rule="nonzero" opacity=".1" stroke-linecap="round" stroke-linejoin="round"/><path stroke="#CC4C23" stroke-width=".86" fill="#F15A29" fill-rule="nonzero" stroke-linecap="round" stroke-linejoin="round" d="M74.37 113.92h6.88v6.88h-6.88z"/><path fill="#414757" fill-rule="nonzero" d="M44.28 48.58H46v13.76h-1.72z"/><g opacity=".35" fill="#414757" fill-rule="nonzero"><path d="M39.97 99.31a.86.86 0 0 1-.6-.25L29.05 88.74a.86.86 0 0 1-.25-.61v-.86h-2.58a4.3 4.3 0 1 1 0-8.59h2.63v-.86a.86.86 0 0 1 .25-.61l10.32-10.32a.86.86 0 0 1 .6-.25h10.32a.86.86 0 0 1 .61.25l10.32 10.32a.86.86 0 0 1 .25.61v.83h2.58a4.3 4.3 0 0 1 3.046 7.336A4.28 4.28 0 0 1 64.1 87.24h-2.58v.86a.86.86 0 0 1-.25.61L50.95 99.03a.86.86 0 0 1-.61.25l-10.37.03Z"/><path d="m50.29 67.5 10.32 10.32v1.71h3.44a3.44 3.44 0 0 1 0 6.88h-3.44v1.72L50.29 98.45H39.98L29.66 88.13v-1.72h-3.44a3.44 3.44 0 0 1 0-6.88h3.44v-1.71L39.98 67.5h10.31Zm0-1.72H39.98a1.72 1.72 0 0 0-1.22.5L28.44 76.65a1.72 1.72 0 0 0-.5 1.22h-1.72a5.16 5.16 0 1 0 0 10.31h1.72a1.72 1.72 0 0 0 .5 1.22l10.32 10.25a1.72 1.72 0 0 0 1.22.5h10.31a1.72 1.72 0 0 0 1.22-.5l10.34-10.3a1.72 1.72 0 0 0 .5-1.22h1.72a5.16 5.16 0 1 0 0-10.31h-1.72a1.72 1.72 0 0 0-.5-1.17L51.53 66.33a1.72 1.72 0 0 0-1.22-.5l-.02-.05Z"/><path d="M44.28 62.34H46V76.1h-1.72z"/></g><path d="M36.54 80.39v-2.22a.83.83 0 0 0-.26-.61l-2.58-2.58a.86.86 0 0 1 0-1.21l6-6a.86.86 0 0 1 .61-.25h9.61a.86.86 0 0 1 .6.25l6 6a.85.85 0 0 1 0 1.21l-2.58 2.58a.86.86 0 0 0-.25.61v2.22a.85.85 0 0 1-.86.86h-1.68a.86.86 0 0 1-.86-.86v-.86a1.72 1.72 0 0 0-1.72-1.71h-6.88a1.72 1.72 0 0 0-1.71 1.71v.86a.86.86 0 0 1-.86.86H37.4a.85.85 0 0 1-.86-.86ZM53.73 85.55v2.23a.86.86 0 0 0 .25.6l2.58 2.58a.86.86 0 0 1 0 1.22l-6 6a.86.86 0 0 1-.6.25h-9.63a.86.86 0 0 1-.61-.25l-6-6a.88.88 0 0 1 0-1.22l2.58-2.58a.83.83 0 0 0 .26-.6v-2.23a.86.86 0 0 1 .86-.86h1.72a.87.87 0 0 1 .86.86v.86a1.72 1.72 0 0 0 1.71 1.72h6.88c.95 0 1.72-.77 1.72-1.72v-.86a.87.87 0 0 1 .86-.86h1.68a.86.86 0 0 1 .88.86Z" stroke="#7C87A5" stroke-width=".86" fill="#E6E7E8" fill-rule="nonzero" stroke-linecap="round" stroke-linejoin="round"/><rect fill="#7C87A5" fill-rule="nonzero" x="41.7" y="79.53" width="6.88" height="6.88" rx=".86"/><path d="M26.22 79.53h6a.86.86 0 0 1 .86.86v5.16a.86.86 0 0 1-.86.86h-6A3.44 3.44 0 0 1 22.78 83a3.44 3.44 0 0 1 3.44-3.44v-.03ZM64.05 86.42h-6a.86.86 0 0 1-.86-.86V80.4a.86.86 0 0 1 .86-.86h6a3.44 3.44 0 0 1 0 6.88Z" stroke="#7C87A5" stroke-width=".86" fill="#E6E7E8" fill-rule="nonzero" stroke-linecap="round" stroke-linejoin="round"/><path d="M36.54 62.34h10.32" stroke="#7C87A5" stroke-width=".86" stroke-linecap="round" stroke-linejoin="round"/><path stroke="#231F20" stroke-width=".86" fill="#231F20" fill-rule="nonzero" opacity=".1" stroke-linecap="round" stroke-linejoin="round" d="M5.59 58.9h79.1v3.44H5.59zM5.59 110.48h79.1v12a1.72 1.72 0 0 1-1.69 1.76H7.31c-.95 0-1.72-.77-1.72-1.72v-12.04Z"/><path d="M9.64 115.14v.7c0 .094.076.17.17.17h4.17a.17.17 0 0 1 .17.17v.7a.16.16 0 0 1-.17.17H9.85a.17.17 0 0 0-.17.18v.69a.17.17 0 0 0 .17.18h4.17a.16.16 0 0 1 .17.17v.7a.17.17 0 0 1-.17.17H8.77a.18.18 0 0 1-.18-.17v-4.87a.17.17 0 0 1 .18-.17h5.21a.16.16 0 0 1 .17.17v.69a.17.17 0 0 1-.17.18H9.85a.17.17 0 0 0-.21.17ZM22.28 114.18l-2.6 4.87a.19.19 0 0 1-.15.09h-1a.19.19 0 0 1-.15-.09l-2.6-4.87a.17.17 0 0 1 .16-.25h.82a.16.16 0 0 1 .15.09l1.79 3.35a.38.38 0 0 0 .67 0l1.79-3.35a.16.16 0 0 1 .15-.09h.82a.17.17 0 0 1 .15.25ZM28.85 113.93a.17.17 0 0 1 .18.17v4.87a.18.18 0 0 1-.17.17h-5.24a.18.18 0 0 1-.17-.17v-1a.18.18 0 0 1 .17-.17h.7a.18.18 0 0 1 .17.17c0 .1.08.18.18.18h3.12c.1 0 .18-.08.18-.18v-.69a.18.18 0 0 0-.18-.18H26.4a.17.17 0 0 1-.17-.17v-.7a.18.18 0 0 1 .17-.17h1.45a.17.17 0 0 0 .17-.17v-.7a.17.17 0 0 0-.17-.17h-3.18a.18.18 0 0 0-.18.17.18.18 0 0 1-.17.18h-.69a.17.17 0 0 1-.17-.18v-1a.16.16 0 0 1 .17-.17l5.22-.09Z" fill="#FFF" fill-rule="nonzero"/></g></svg>