<svg width="116" height="95" xmlns="http://www.w3.org/2000/svg"><g fill="none" fill-rule="evenodd"><path d="M106 4.175H10c-3.3 0-6 2.7-6 6v75c0 2.7 1.725 4.95 4.125 5.7.6.15 1.2.3 1.875.3h96c.675 0 1.275-.075 1.875-.3 2.4-.75 4.125-3 4.125-5.7v-75c0-3.3-2.625-6-6-6Zm-93 76.05c-2.1 0-3.75-1.65-3.75-3.75s1.65-3.75 3.75-3.75 3.75 1.65 3.75 3.75-1.65 3.75-3.75 3.75Zm21.225 0c-2.1 0-3.75-1.65-3.75-3.75s1.65-3.75 3.75-3.75 3.75 1.65 3.75 3.75-1.725 3.75-3.75 3.75Zm23.775 0c-2.1 0-3.75-1.65-3.75-3.75s1.65-3.75 3.75-3.75 3.75 1.65 3.75 3.75-1.65 3.75-3.75 3.75Zm23.85 0c-2.1 0-3.75-1.65-3.75-3.75s1.65-3.75 3.75-3.75 3.75 1.65 3.75 3.75-1.65 3.75-3.75 3.75Zm21.15 0c-2.1 0-3.75-1.65-3.75-3.75s1.65-3.75 3.75-3.75 3.75 1.65 3.75 3.75-1.65 3.75-3.75 3.75Z" stroke="#231F20" stroke-width="6" fill="#231F20" fill-rule="nonzero" opacity=".1"/><path d="M106 4.175H10c-3.3 0-6 2.7-6 6v75c0 2.7 1.725 4.95 4.125 5.7.6.15 1.2.3 1.875.3h96c.675 0 1.275-.075 1.875-.3 2.4-.75 4.125-3 4.125-5.7v-75c0-3.3-2.625-6-6-6Zm-93 76.05c-2.1 0-3.75-1.65-3.75-3.75s1.65-3.75 3.75-3.75 3.75 1.65 3.75 3.75-1.65 3.75-3.75 3.75Zm21.225 0c-2.1 0-3.75-1.65-3.75-3.75s1.65-3.75 3.75-3.75 3.75 1.65 3.75 3.75-1.725 3.75-3.75 3.75Zm23.775 0c-2.1 0-3.75-1.65-3.75-3.75s1.65-3.75 3.75-3.75 3.75 1.65 3.75 3.75-1.65 3.75-3.75 3.75Zm23.85 0c-2.1 0-3.75-1.65-3.75-3.75s1.65-3.75 3.75-3.75 3.75 1.65 3.75 3.75-1.65 3.75-3.75 3.75Zm21.15 0c-2.1 0-3.75-1.65-3.75-3.75s1.65-3.75 3.75-3.75 3.75 1.65 3.75 3.75-1.65 3.75-3.75 3.75Z" fill="#414757" fill-rule="nonzero"/><path d="M4 31.175v-21c0-3.3 2.7-6 6-6h21l-27 27ZM31 16.175v-12h12zM43 13.175v-9h9z" fill="#4C97FF" fill-rule="nonzero"/><path stroke="#4C97FF" stroke-width=".75" fill="#4C97FF" fill-rule="nonzero" stroke-linecap="round" stroke-linejoin="round" d="M98.5 34.175v-9h9zM17.5 55.175v9h-9z"/><path d="M7 46.175c-.825 0-1.5-.675-1.5-1.5s.675-1.5 1.5-1.5 1.5.675 1.5 1.5-.675 1.5-1.5 1.5ZM109 46.175c-.825 0-1.5-.675-1.5-1.5s.675-1.5 1.5-1.5 1.5.675 1.5 1.5-.675 1.5-1.5 1.5Z" fill="#FFF" fill-rule="nonzero"/><g fill="#4C97FF" fill-rule="nonzero"><path d="M61.825 19.55c.6 0 1.05-.45 1.05-1.05 0-.6-.45-1.05-1.05-1.05-.6 0-1.05.45-1.05 1.05 0 .6.45 1.05 1.05 1.05M54.175 17.45c-.6 0-1.05.45-1.05 1.05 0 .6.45 1.05 1.05 1.05.6 0 1.05-.45 1.05-1.05 0-.6-.45-1.05-1.05-1.05"/><path d="M54.175 15.425A3.041 3.041 0 0 0 51.1 18.5a3.041 3.041 0 0 0 3.075 3.075H61.9a3.041 3.041 0 0 0 3.075-3.075 3.041 3.041 0 0 0-3.075-3.075h-7.725m7.725 8.25h-7.725A5.185 5.185 0 0 1 49 18.5a5.185 5.185 0 0 1 5.175-5.175H61.9a5.185 5.185 0 0 1 5.175 5.175C67 21.35 64.75 23.675 61.9 23.675"/></g><g transform="translate(10 36.5)" fill-rule="nonzero"><path d="M13.5.675h-12c-.825 0-1.5.675-1.5 1.5v12c0 .825.675 1.5 1.5 1.5h12c.825 0 1.5-.675 1.5-1.5v-12c0-.825-.675-1.5-1.5-1.5Z" stroke="#231F20" stroke-width="3" fill="#231F20" opacity=".25" stroke-linecap="round" stroke-linejoin="round"/><path d="M13.5.675h-12c-.825 0-1.5.675-1.5 1.5v12c0 .825.675 1.5 1.5 1.5h12c.825 0 1.5-.675 1.5-1.5v-12c0-.825-.675-1.5-1.5-1.5Z" stroke="#7C87A5" stroke-width=".75" fill="#E6E7E8" stroke-linecap="round" stroke-linejoin="round"/><circle stroke="#231F20" stroke-width="2.25" fill="#231F20" opacity=".1" cx="7.5" cy="8.175" r="3"/><circle stroke="#414757" stroke-width=".75" fill="#414757" cx="7.5" cy="8.175" r="3"/></g><g transform="translate(91 36.5)" fill-rule="nonzero"><path d="M13.5.675h-12c-.825 0-1.5.675-1.5 1.5v12c0 .825.675 1.5 1.5 1.5h12c.825 0 1.5-.675 1.5-1.5v-12c0-.825-.675-1.5-1.5-1.5Z" stroke="#231F20" stroke-width="3" fill="#231F20" opacity=".25" stroke-linecap="round" stroke-linejoin="round"/><path d="M13.5.675h-12c-.825 0-1.5.675-1.5 1.5v12c0 .825.675 1.5 1.5 1.5h12c.825 0 1.5-.675 1.5-1.5v-12c0-.825-.675-1.5-1.5-1.5Z" stroke="#7C87A5" stroke-width=".75" fill="#E6E7E8" stroke-linecap="round" stroke-linejoin="round"/><circle stroke="#231F20" stroke-width="2.25" fill="#231F20" opacity=".1" cx="7.5" cy="8.175" r="3"/><circle stroke="#414757" stroke-width=".75" fill="#414757" cx="7.5" cy="8.175" r="3"/></g><g fill-rule="nonzero"><path d="M41.35 31.925h-1.2a.161.161 0 0 1-.15-.15v-1.2c0-.075.075-.15.15-.15h1.2c.075 0 .15.075.15.15v1.2c0 .075 0 .15-.15.15Z" opacity=".5" fill="#E6E7E8"/><path d="M41.35 34.175h-1.2a.161.161 0 0 1-.15-.15v-1.2c0-.075.075-.15.15-.15h1.2c.075 0 .15.075.15.15v1.2c0 .075 0 .15-.15.15Z" opacity=".25" fill="#231F20"/><path d="M41.35 33.425h-1.2a.161.161 0 0 1-.15-.15v-1.95c0-.075.075-.15.15-.15h1.2c.075 0 .15.075.15.15v1.95c0 .075 0 .15-.15.15Z" fill="#E6E7E8"/><path d="M49.975 31.925h-1.2a.161.161 0 0 1-.15-.15v-1.2c0-.075.075-.15.15-.15h1.2c.075 0 .15.075.15.15v1.2c0 .075 0 .15-.15.15Z" opacity=".5" fill="#E6E7E8"/><path d="M49.975 34.175h-1.2a.161.161 0 0 1-.15-.15v-1.2c0-.075.075-.15.15-.15h1.2c.075 0 .15.075.15.15v1.2c0 .075 0 .15-.15.15Z" opacity=".25" fill="#231F20"/><path d="M49.975 33.425h-1.2a.161.161 0 0 1-.15-.15v-1.95c0-.075.075-.15.15-.15h1.2c.075 0 .15.075.15.15v1.95c0 .075 0 .15-.15.15Z" fill="#E6E7E8"/><path d="M58.6 31.925h-1.2a.161.161 0 0 1-.15-.15v-1.2c0-.075.075-.15.15-.15h1.2c.075 0 .15.075.15.15v1.2c0 .075 0 .15-.15.15Z" opacity=".5" fill="#E6E7E8"/><path d="M58.6 34.175h-1.2a.161.161 0 0 1-.15-.15v-1.2c0-.075.075-.15.15-.15h1.2c.075 0 .15.075.15.15v1.2c0 .075 0 .15-.15.15Z" opacity=".25" fill="#231F20"/><path d="M58.6 33.425h-1.2a.161.161 0 0 1-.15-.15v-1.95c0-.075.075-.15.15-.15h1.2c.075 0 .15.075.15.15v1.95c0 .075 0 .15-.15.15Z" fill="#E6E7E8"/><path d="M67.225 31.925h-1.2a.161.161 0 0 1-.15-.15v-1.2c0-.075.075-.15.15-.15h1.2c.075 0 .15.075.15.15v1.2c0 .075 0 .15-.15.15Z" opacity=".5" fill="#E6E7E8"/><path d="M67.225 34.175h-1.2a.161.161 0 0 1-.15-.15v-1.2c0-.075.075-.15.15-.15h1.2c.075 0 .15.075.15.15v1.2c0 .075 0 .15-.15.15Z" opacity=".25" fill="#231F20"/><path d="M67.225 33.425h-1.2a.161.161 0 0 1-.15-.15v-1.95c0-.075.075-.15.15-.15h1.2c.075 0 .15.075.15.15v1.95c0 .075 0 .15-.15.15Z" fill="#E6E7E8"/><path d="M75.85 31.925h-1.2a.161.161 0 0 1-.15-.15v-1.2c0-.075.075-.15.15-.15h1.2c.075 0 .15.075.15.15v1.2c0 .075 0 .15-.15.15Z" opacity=".5" fill="#E6E7E8"/><path d="M75.85 34.175h-1.2a.161.161 0 0 1-.15-.15v-1.2c0-.075.075-.15.15-.15h1.2c.075 0 .15.075.15.15v1.2c0 .075 0 .15-.15.15Z" opacity=".25" fill="#231F20"/><path d="M75.85 33.425h-1.2a.161.161 0 0 1-.15-.15v-1.95c0-.075.075-.15.15-.15h1.2c.075 0 .15.075.15.15v1.95c0 .075 0 .15-.15.15Z" fill="#E6E7E8"/></g><g fill-rule="nonzero"><path d="M41.35 40.325h-1.2a.161.161 0 0 1-.15-.15v-1.2c0-.075.075-.15.15-.15h1.2c.075 0 .15.075.15.15v1.2c0 .075 0 .15-.15.15Z" opacity=".5" fill="#E6E7E8"/><path d="M41.35 42.575h-1.2a.161.161 0 0 1-.15-.15v-1.2c0-.075.075-.15.15-.15h1.2c.075 0 .15.075.15.15v1.2c0 .075 0 .15-.15.15Z" opacity=".25" fill="#231F20"/><path d="M41.35 41.825h-1.2a.161.161 0 0 1-.15-.15v-1.95c0-.075.075-.15.15-.15h1.2c.075 0 .15.075.15.15v1.95c0 .075 0 .15-.15.15Z" fill="#E6E7E8"/><path d="M49.975 40.325h-1.2a.161.161 0 0 1-.15-.15v-1.2c0-.075.075-.15.15-.15h1.2c.075 0 .15.075.15.15v1.2c0 .075 0 .15-.15.15Z" opacity=".5" fill="#E6E7E8"/><path d="M49.975 42.575h-1.2a.161.161 0 0 1-.15-.15v-1.2c0-.075.075-.15.15-.15h1.2c.075 0 .15.075.15.15v1.2c0 .075 0 .15-.15.15Z" opacity=".25" fill="#231F20"/><path d="M49.975 41.825h-1.2a.161.161 0 0 1-.15-.15v-1.95c0-.075.075-.15.15-.15h1.2c.075 0 .15.075.15.15v1.95c0 .075 0 .15-.15.15Z" fill="#E6E7E8"/><path d="M58.6 40.325h-1.2a.161.161 0 0 1-.15-.15v-1.2c0-.075.075-.15.15-.15h1.2c.075 0 .15.075.15.15v1.2c0 .075 0 .15-.15.15Z" opacity=".5" fill="#E6E7E8"/><path d="M58.6 42.575h-1.2a.161.161 0 0 1-.15-.15v-1.2c0-.075.075-.15.15-.15h1.2c.075 0 .15.075.15.15v1.2c0 .075 0 .15-.15.15Z" opacity=".25" fill="#231F20"/><path d="M58.6 41.825h-1.2a.161.161 0 0 1-.15-.15v-1.95c0-.075.075-.15.15-.15h1.2c.075 0 .15.075.15.15v1.95c0 .075 0 .15-.15.15Z" fill="#E6E7E8"/><path d="M67.225 40.325h-1.2a.161.161 0 0 1-.15-.15v-1.2c0-.075.075-.15.15-.15h1.2c.075 0 .15.075.15.15v1.2c0 .075 0 .15-.15.15Z" opacity=".5" fill="#E6E7E8"/><path d="M67.225 42.575h-1.2a.161.161 0 0 1-.15-.15v-1.2c0-.075.075-.15.15-.15h1.2c.075 0 .15.075.15.15v1.2c0 .075 0 .15-.15.15Z" opacity=".25" fill="#231F20"/><path d="M67.225 41.825h-1.2a.161.161 0 0 1-.15-.15v-1.95c0-.075.075-.15.15-.15h1.2c.075 0 .15.075.15.15v1.95c0 .075 0 .15-.15.15Z" fill="#E6E7E8"/><path d="M75.85 40.325h-1.2a.161.161 0 0 1-.15-.15v-1.2c0-.075.075-.15.15-.15h1.2c.075 0 .15.075.15.15v1.2c0 .075 0 .15-.15.15Z" opacity=".5" fill="#E6E7E8"/><path d="M75.85 42.575h-1.2a.161.161 0 0 1-.15-.15v-1.2c0-.075.075-.15.15-.15h1.2c.075 0 .15.075.15.15v1.2c0 .075 0 .15-.15.15Z" opacity=".25" fill="#231F20"/><path d="M75.85 41.825h-1.2a.161.161 0 0 1-.15-.15v-1.95c0-.075.075-.15.15-.15h1.2c.075 0 .15.075.15.15v1.95c0 .075 0 .15-.15.15Z" fill="#E6E7E8"/></g><g fill-rule="nonzero"><path d="M41.35 48.8h-1.2a.161.161 0 0 1-.15-.15v-1.2c0-.075.075-.15.15-.15h1.2c.075 0 .15.075.15.15v1.2c0 .075 0 .15-.15.15Z" opacity=".5" fill="#E6E7E8"/><path d="M41.35 51.05h-1.2a.161.161 0 0 1-.15-.15v-1.2c0-.075.075-.15.15-.15h1.2c.075 0 .15.075.15.15v1.2c0 .075 0 .15-.15.15Z" opacity=".25" fill="#231F20"/><path d="M41.35 50.3h-1.2a.161.161 0 0 1-.15-.15V48.2c0-.075.075-.15.15-.15h1.2c.075 0 .15.075.15.15v1.95c0 .075 0 .15-.15.15Z" fill="#E6E7E8"/><path d="M49.975 48.8h-1.2a.161.161 0 0 1-.15-.15v-1.2c0-.075.075-.15.15-.15h1.2c.075 0 .15.075.15.15v1.2c0 .075 0 .15-.15.15Z" opacity=".5" fill="#E6E7E8"/><path d="M49.975 51.05h-1.2a.161.161 0 0 1-.15-.15v-1.2c0-.075.075-.15.15-.15h1.2c.075 0 .15.075.15.15v1.2c0 .075 0 .15-.15.15Z" opacity=".25" fill="#231F20"/><path d="M49.975 50.3h-1.2a.161.161 0 0 1-.15-.15V48.2c0-.075.075-.15.15-.15h1.2c.075 0 .15.075.15.15v1.95c0 .075 0 .15-.15.15Z" fill="#E6E7E8"/><path d="M58.6 48.8h-1.2a.161.161 0 0 1-.15-.15v-1.2c0-.075.075-.15.15-.15h1.2c.075 0 .15.075.15.15v1.2c0 .075 0 .15-.15.15Z" opacity=".5" fill="#E6E7E8"/><path d="M58.6 51.05h-1.2a.161.161 0 0 1-.15-.15v-1.2c0-.075.075-.15.15-.15h1.2c.075 0 .15.075.15.15v1.2c0 .075 0 .15-.15.15Z" opacity=".25" fill="#231F20"/><path d="M58.6 50.3h-1.2a.161.161 0 0 1-.15-.15V48.2c0-.075.075-.15.15-.15h1.2c.075 0 .15.075.15.15v1.95c0 .075 0 .15-.15.15Z" fill="#E6E7E8"/><path d="M67.225 48.8h-1.2a.161.161 0 0 1-.15-.15v-1.2c0-.075.075-.15.15-.15h1.2c.075 0 .15.075.15.15v1.2c0 .075 0 .15-.15.15Z" opacity=".5" fill="#E6E7E8"/><path d="M67.225 51.05h-1.2a.161.161 0 0 1-.15-.15v-1.2c0-.075.075-.15.15-.15h1.2c.075 0 .15.075.15.15v1.2c0 .075 0 .15-.15.15Z" opacity=".25" fill="#231F20"/><path d="M67.225 50.3h-1.2a.161.161 0 0 1-.15-.15V48.2c0-.075.075-.15.15-.15h1.2c.075 0 .15.075.15.15v1.95c0 .075 0 .15-.15.15Z" fill="#E6E7E8"/><path d="M75.85 48.8h-1.2a.161.161 0 0 1-.15-.15v-1.2c0-.075.075-.15.15-.15h1.2c.075 0 .15.075.15.15v1.2c0 .075 0 .15-.15.15Z" opacity=".5" fill="#E6E7E8"/><path d="M75.85 51.05h-1.2a.161.161 0 0 1-.15-.15v-1.2c0-.075.075-.15.15-.15h1.2c.075 0 .15.075.15.15v1.2c0 .075 0 .15-.15.15Z" opacity=".25" fill="#231F20"/><path d="M75.85 50.3h-1.2a.161.161 0 0 1-.15-.15V48.2c0-.075.075-.15.15-.15h1.2c.075 0 .15.075.15.15v1.95c0 .075 0 .15-.15.15Z" fill="#E6E7E8"/></g><g fill-rule="nonzero"><path d="M41.35 57.2h-1.2a.161.161 0 0 1-.15-.15v-1.2c0-.075.075-.15.15-.15h1.2c.075 0 .15.075.15.15v1.2c0 .075 0 .15-.15.15Z" opacity=".5" fill="#E6E7E8"/><path d="M41.35 59.45h-1.2a.161.161 0 0 1-.15-.15v-1.2c0-.075.075-.15.15-.15h1.2c.075 0 .15.075.15.15v1.2c0 .075 0 .15-.15.15Z" opacity=".25" fill="#231F20"/><path d="M41.35 58.7h-1.2a.161.161 0 0 1-.15-.15V56.6c0-.075.075-.15.15-.15h1.2c.075 0 .15.075.15.15v1.95c0 .075 0 .15-.15.15Z" fill="#E6E7E8"/><path d="M49.975 57.2h-1.2a.161.161 0 0 1-.15-.15v-1.2c0-.075.075-.15.15-.15h1.2c.075 0 .15.075.15.15v1.2c0 .075 0 .15-.15.15Z" opacity=".5" fill="#E6E7E8"/><path d="M49.975 59.45h-1.2a.161.161 0 0 1-.15-.15v-1.2c0-.075.075-.15.15-.15h1.2c.075 0 .15.075.15.15v1.2c0 .075 0 .15-.15.15Z" opacity=".25" fill="#231F20"/><path d="M49.975 58.7h-1.2a.161.161 0 0 1-.15-.15V56.6c0-.075.075-.15.15-.15h1.2c.075 0 .15.075.15.15v1.95c0 .075 0 .15-.15.15Z" fill="#E6E7E8"/><path d="M58.6 57.2h-1.2a.161.161 0 0 1-.15-.15v-1.2c0-.075.075-.15.15-.15h1.2c.075 0 .15.075.15.15v1.2c0 .075 0 .15-.15.15Z" opacity=".5" fill="#E6E7E8"/><path d="M58.6 59.45h-1.2a.161.161 0 0 1-.15-.15v-1.2c0-.075.075-.15.15-.15h1.2c.075 0 .15.075.15.15v1.2c0 .075 0 .15-.15.15Z" opacity=".25" fill="#231F20"/><path d="M58.6 58.7h-1.2a.161.161 0 0 1-.15-.15V56.6c0-.075.075-.15.15-.15h1.2c.075 0 .15.075.15.15v1.95c0 .075 0 .15-.15.15Z" fill="#E6E7E8"/><path d="M67.225 57.2h-1.2a.161.161 0 0 1-.15-.15v-1.2c0-.075.075-.15.15-.15h1.2c.075 0 .15.075.15.15v1.2c0 .075 0 .15-.15.15Z" opacity=".5" fill="#E6E7E8"/><path d="M67.225 59.45h-1.2a.161.161 0 0 1-.15-.15v-1.2c0-.075.075-.15.15-.15h1.2c.075 0 .15.075.15.15v1.2c0 .075 0 .15-.15.15Z" opacity=".25" fill="#231F20"/><path d="M67.225 58.7h-1.2a.161.161 0 0 1-.15-.15V56.6c0-.075.075-.15.15-.15h1.2c.075 0 .15.075.15.15v1.95c0 .075 0 .15-.15.15Z" fill="#E6E7E8"/><path d="M75.85 57.2h-1.2a.161.161 0 0 1-.15-.15v-1.2c0-.075.075-.15.15-.15h1.2c.075 0 .15.075.15.15v1.2c0 .075 0 .15-.15.15Z" opacity=".5" fill="#E6E7E8"/><path d="M75.85 59.45h-1.2a.161.161 0 0 1-.15-.15v-1.2c0-.075.075-.15.15-.15h1.2c.075 0 .15.075.15.15v1.2c0 .075 0 .15-.15.15Z" opacity=".25" fill="#231F20"/><path d="M75.85 58.7h-1.2a.161.161 0 0 1-.15-.15V56.6c0-.075.075-.15.15-.15h1.2c.075 0 .15.075.15.15v1.95c0 .075 0 .15-.15.15Z" fill="#E6E7E8"/></g><g fill-rule="nonzero"><path d="M41.35 65.675h-1.2a.161.161 0 0 1-.15-.15v-1.2c0-.075.075-.15.15-.15h1.2c.075 0 .15.075.15.15v1.2c0 .075 0 .15-.15.15Z" opacity=".5" fill="#E6E7E8"/><path d="M41.35 67.925h-1.2a.161.161 0 0 1-.15-.15v-1.2c0-.075.075-.15.15-.15h1.2c.075 0 .15.075.15.15v1.2c0 .075 0 .15-.15.15Z" opacity=".25" fill="#231F20"/><path d="M41.35 67.175h-1.2a.161.161 0 0 1-.15-.15v-1.95c0-.075.075-.15.15-.15h1.2c.075 0 .15.075.15.15v1.95c0 .075 0 .15-.15.15Z" fill="#E6E7E8"/><path d="M49.975 65.675h-1.2a.161.161 0 0 1-.15-.15v-1.2c0-.075.075-.15.15-.15h1.2c.075 0 .15.075.15.15v1.2c0 .075 0 .15-.15.15Z" opacity=".5" fill="#E6E7E8"/><path d="M49.975 67.925h-1.2a.161.161 0 0 1-.15-.15v-1.2c0-.075.075-.15.15-.15h1.2c.075 0 .15.075.15.15v1.2c0 .075 0 .15-.15.15Z" opacity=".25" fill="#231F20"/><path d="M49.975 67.175h-1.2a.161.161 0 0 1-.15-.15v-1.95c0-.075.075-.15.15-.15h1.2c.075 0 .15.075.15.15v1.95c0 .075 0 .15-.15.15Z" fill="#E6E7E8"/><path d="M58.6 65.675h-1.2a.161.161 0 0 1-.15-.15v-1.2c0-.075.075-.15.15-.15h1.2c.075 0 .15.075.15.15v1.2c0 .075 0 .15-.15.15Z" opacity=".5" fill="#E6E7E8"/><path d="M58.6 67.925h-1.2a.161.161 0 0 1-.15-.15v-1.2c0-.075.075-.15.15-.15h1.2c.075 0 .15.075.15.15v1.2c0 .075 0 .15-.15.15Z" opacity=".25" fill="#231F20"/><path d="M58.6 67.175h-1.2a.161.161 0 0 1-.15-.15v-1.95c0-.075.075-.15.15-.15h1.2c.075 0 .15.075.15.15v1.95c0 .075 0 .15-.15.15Z" fill="#E6E7E8"/><path d="M67.225 65.675h-1.2a.161.161 0 0 1-.15-.15v-1.2c0-.075.075-.15.15-.15h1.2c.075 0 .15.075.15.15v1.2c0 .075 0 .15-.15.15Z" opacity=".5" fill="#E6E7E8"/><path d="M67.225 67.925h-1.2a.161.161 0 0 1-.15-.15v-1.2c0-.075.075-.15.15-.15h1.2c.075 0 .15.075.15.15v1.2c0 .075 0 .15-.15.15Z" opacity=".25" fill="#231F20"/><path d="M67.225 67.175h-1.2a.161.161 0 0 1-.15-.15v-1.95c0-.075.075-.15.15-.15h1.2c.075 0 .15.075.15.15v1.95c0 .075 0 .15-.15.15Z" fill="#E6E7E8"/><path d="M75.85 65.675h-1.2a.161.161 0 0 1-.15-.15v-1.2c0-.075.075-.15.15-.15h1.2c.075 0 .15.075.15.15v1.2c0 .075 0 .15-.15.15Z" opacity=".5" fill="#E6E7E8"/><path d="M75.85 67.925h-1.2a.161.161 0 0 1-.15-.15v-1.2c0-.075.075-.15.15-.15h1.2c.075 0 .15.075.15.15v1.2c0 .075 0 .15-.15.15Z" opacity=".25" fill="#231F20"/><path d="M75.85 67.175h-1.2a.161.161 0 0 1-.15-.15v-1.95c0-.075.075-.15.15-.15h1.2c.075 0 .15.075.15.15v1.95c0 .075 0 .15-.15.15Z" fill="#E6E7E8"/></g><g fill="#FFBF00" fill-rule="nonzero"><path d="M7.3 80.675V90.5c-.675-.375-1.275-.825-1.725-1.35v-8.475H7.3ZM9.55 91.1h.375V80.675H8.2v10.2zM10.825 80.675h1.8V91.1h-1.8zM13.45 80.675h1.8V91.1h-1.8zM16.15 80.675h1.8V91.1h-1.8zM18.775 80.675h1.8V91.1h-1.8zM21.4 80.675h1.8V91.1h-1.8zM24.025 80.675h1.8V91.1h-1.8zM26.725 80.675h1.8V91.1h-1.8zM29.35 80.675h1.8V91.1h-1.8zM31.975 80.675h1.8V91.1h-1.8zM34.675 80.675h1.8V91.1h-1.8zM37.3 80.675h1.8V91.1h-1.8zM39.925 80.675h1.8V91.1h-1.8zM42.625 80.675h1.8V91.1h-1.8zM45.25 80.675h1.8V91.1h-1.8zM47.875 80.675h1.8V91.1h-1.8zM50.5 80.675h1.8V91.1h-1.8zM53.2 80.675H55V91.1h-1.8zM55.825 80.675h1.8V91.1h-1.8zM58.45 80.675h1.8V91.1h-1.8zM61.15 80.675h1.8V91.1h-1.8zM63.775 80.675h1.8V91.1h-1.8zM66.4 80.675h1.8V91.1h-1.8zM69.025 80.675h1.8V91.1h-1.8zM71.725 80.675h1.8V91.1h-1.8zM74.35 80.675h1.8V91.1h-1.8zM76.975 80.675h1.8V91.1h-1.8zM79.675 80.675h1.8V91.1h-1.8zM82.3 80.675h1.8V91.1h-1.8zM84.925 80.675h1.8V91.1h-1.8zM87.625 80.675h1.8V91.1h-1.8zM90.25 80.675h1.8V91.1h-1.8zM92.875 80.675h1.8V91.1h-1.8zM95.5 80.675h1.8V91.1h-1.8zM98.2 80.675h1.8V91.1h-1.8zM100.825 80.675h1.8V91.1h-1.8zM103.45 80.675h1.8V91.1h-1.8zM106.525 91.1h-.375V80.675h1.725v10.2zM110.5 80.675v8.475c-.525.6-1.05 1.05-1.725 1.35v-9.825h1.725Z"/></g><g fill="#FFBF00" fill-rule="nonzero"><path d="M13 80.225c-2.1 0-3.75-1.65-3.75-3.75s1.65-3.75 3.75-3.75 3.75 1.65 3.75 3.75-1.65 3.75-3.75 3.75Zm-3 10.95h7.875V76.55c0-1.35-.525-2.55-1.425-3.45-.9-.9-2.1-1.425-3.45-1.425a4.865 4.865 0 0 0-4.875 4.875v14.325l1.875.3ZM37.675 73.1c-.9-.9-2.1-1.425-3.45-1.425a4.865 4.865 0 0 0-4.875 4.875v14.625h9.675V76.55c.075-1.35-.525-2.625-1.35-3.45Zm-3.45 7.125c-2.1 0-3.75-1.65-3.75-3.75s1.65-3.75 3.75-3.75 3.75 1.65 3.75 3.75-1.725 3.75-3.75 3.75ZM61.45 73.1c-.9-.9-2.1-1.425-3.45-1.425a4.865 4.865 0 0 0-4.875 4.875v14.625H62.8V76.55c.075-1.35-.45-2.625-1.35-3.45ZM58 80.225c-2.1 0-3.75-1.65-3.75-3.75s1.65-3.75 3.75-3.75 3.75 1.65 3.75 3.75-1.65 3.75-3.75 3.75ZM85.3 73.1c-.9-.9-2.1-1.425-3.45-1.425a4.865 4.865 0 0 0-4.875 4.875v14.625h9.675V76.55c.075-1.35-.45-2.625-1.35-3.45Zm-3.45 7.125c-2.1 0-3.75-1.65-3.75-3.75s1.65-3.75 3.75-3.75 3.75 1.65 3.75 3.75-1.65 3.75-3.75 3.75ZM106.45 73.1c-.9-.9-2.1-1.425-3.45-1.425a4.865 4.865 0 0 0-4.875 4.875v14.625H106l1.875-.3V76.55c0-1.35-.525-2.625-1.425-3.45ZM103 80.225c-2.1 0-3.75-1.65-3.75-3.75s1.65-3.75 3.75-3.75 3.75 1.65 3.75 3.75-1.65 3.75-3.75 3.75Z"/></g><path d="M13.006 83.537c.34 0 .585.14.736.42.118.215.176.511.176.887 0 .357-.053.652-.159.885-.154.334-.405.502-.754.502a.755.755 0 0 1-.704-.41c-.128-.229-.192-.535-.192-.92 0-.298.039-.553.116-.767.144-.398.404-.597.781-.597Zm-.003 2.393c.17 0 .307-.075.408-.227.101-.151.152-.433.152-.846a2.09 2.09 0 0 0-.11-.735c-.073-.192-.215-.288-.426-.288a.446.446 0 0 0-.426.273c-.09.183-.135.452-.135.807 0 .267.029.482.086.645.088.247.238.371.45.371ZM15.88 62.494l-.408-1.188-.434 1.188h.842Zm-.599-1.588h.412l.976 2.69h-.399l-.273-.805h-1.064l-.29.805h-.374l1.012-2.69ZM100.252 27.403a.817.817 0 0 0 .359-.064c.134-.067.201-.188.201-.363 0-.176-.071-.294-.214-.355a.963.963 0 0 0-.359-.051h-.65v.833h.663Zm.123 1.241c.223 0 .382-.065.478-.194.06-.082.09-.18.09-.297 0-.195-.088-.328-.263-.399a.991.991 0 0 0-.368-.056h-.723v.946h.786Zm-1.143-2.378h1.155c.315 0 .54.094.672.282.079.11.118.239.118.384 0 .17-.049.309-.145.418a.707.707 0 0 1-.216.157.914.914 0 0 1 .31.178c.12.117.18.279.18.485a.75.75 0 0 1-.162.47c-.163.21-.42.315-.775.315h-1.137v-2.69ZM33.35 84.302v-.252c.238-.023.404-.062.498-.117.094-.054.164-.182.21-.385h.26v2.611h-.351v-1.857h-.617ZM57.108 86.16a1.53 1.53 0 0 1 .14-.59c.081-.168.24-.32.475-.456l.352-.204c.157-.091.268-.17.331-.234.1-.101.15-.217.15-.348a.486.486 0 0 0-.137-.363.5.5 0 0 0-.366-.135c-.226 0-.382.085-.47.256a.918.918 0 0 0-.076.381h-.335c.004-.228.046-.414.126-.558.143-.254.395-.381.756-.381.3 0 .52.081.659.243a.815.815 0 0 1 .208.542c0 .21-.074.39-.222.539-.085.086-.239.191-.46.315l-.25.139c-.12.066-.214.129-.282.188a.687.687 0 0 0-.231.354h1.432v.311h-1.8ZM81.502 84.768a.73.73 0 0 0-.004 0h.004Zm0 0c.136.039.243.111.32.218.077.108.116.24.116.397 0 .25-.083.454-.248.611-.164.158-.398.237-.7.237-.31 0-.536-.086-.676-.256a.948.948 0 0 1-.21-.622h.345c.015.17.046.293.095.37.086.138.24.207.463.207a.607.607 0 0 0 .418-.139.457.457 0 0 0 .157-.359c0-.18-.055-.307-.165-.379-.11-.072-.264-.108-.46-.108a2.474 2.474 0 0 0-.136.004v-.291a1.641 1.641 0 0 0 .16.009c.124 0 .225-.02.305-.059.139-.068.209-.19.209-.366a.358.358 0 0 0-.14-.302.52.52 0 0 0-.324-.106c-.22 0-.371.073-.456.22a.762.762 0 0 0-.078.344h-.326c0-.196.039-.362.117-.498.134-.245.37-.367.708-.367.268 0 .475.06.621.179.147.119.22.291.22.517a.577.577 0 0 1-.13.392.546.546 0 0 1-.209.146l.004.001Zm1.001-.57.524 1.597.548-1.597h.36l-.74 1.961h-.351l-.723-1.961h.382ZM100.28 83.4c.252 0 .47.049.655.146.267.14.43.387.49.738h-.36c-.044-.196-.135-.34-.273-.43a.939.939 0 0 0-.522-.134.818.818 0 0 0-.629.28c-.17.187-.255.465-.255.835 0 .32.07.58.21.781.14.201.37.301.687.301.243 0 .444-.07.603-.211.16-.141.241-.369.245-.684h-.843v-.302h1.182v1.44h-.235l-.088-.347c-.123.136-.232.23-.327.282-.16.09-.364.136-.61.136-.319 0-.593-.104-.822-.31-.25-.259-.376-.614-.376-1.066 0-.45.122-.808.366-1.074.232-.254.533-.381.901-.381Zm1.753.07h.43l1.36 2.178V83.47h.345v2.69h-.408l-1.379-2.177v2.177h-.348v-2.69Zm3.741 2.378c.124 0 .225-.013.304-.039a.669.669 0 0 0 .348-.274c.072-.109.124-.248.156-.418.018-.101.027-.195.027-.282 0-.333-.066-.592-.198-.776-.133-.184-.346-.277-.64-.277h-.647v2.066h.65Zm-1.016-2.379h1.09c.37 0 .656.132.86.394.182.237.273.54.273.91 0 .286-.054.544-.161.775-.19.407-.515.611-.976.611h-1.086v-2.69Z" fill="#414757"/><g fill="#FF4E00" fill-rule="nonzero" stroke="#FF4E00"><g opacity=".5" stroke-width="5"><path d="M49.975 33.425h-1.2a.161.161 0 0 1-.15-.15v-1.95c0-.075.075-.15.15-.15h1.2c.075 0 .15.075.15.15v1.95c0 .075 0 .15-.15.15ZM67.225 33.425h-1.2a.161.161 0 0 1-.15-.15v-1.95c0-.075.075-.15.15-.15h1.2c.075 0 .15.075.15.15v1.95c0 .075 0 .15-.15.15ZM41.35 50.3h-1.2a.161.161 0 0 1-.15-.15V48.2c0-.075.075-.15.15-.15h1.2c.075 0 .15.075.15.15v1.95c0 .075 0 .15-.15.15ZM75.85 50.3h-1.2a.161.161 0 0 1-.15-.15V48.2c0-.075.075-.15.15-.15h1.2c.075 0 .15.075.15.15v1.95c0 .075 0 .15-.15.15ZM49.975 58.7h-1.2a.161.161 0 0 1-.15-.15V56.6c0-.075.075-.15.15-.15h1.2c.075 0 .15.075.15.15v1.95c0 .075 0 .15-.15.15ZM58.6 58.7h-1.2a.161.161 0 0 1-.15-.15V56.6c0-.075.075-.15.15-.15h1.2c.075 0 .15.075.15.15v1.95c0 .075 0 .15-.15.15ZM58.6 67.175h-1.2a.161.161 0 0 1-.15-.15v-1.95c0-.075.075-.15.15-.15h1.2c.075 0 .15.075.15.15v1.95c0 .075 0 .15-.15.15ZM67.225 58.7h-1.2a.161.161 0 0 1-.15-.15V56.6c0-.075.075-.15.15-.15h1.2c.075 0 .15.075.15.15v1.95c0 .075 0 .15-.15.15ZM49.975 50.3h-1.2a.161.161 0 0 1-.15-.15V48.2c0-.075.075-.15.15-.15h1.2c.075 0 .15.075.15.15v1.95c0 .075 0 .15-.15.15ZM58.6 50.3h-1.2a.161.161 0 0 1-.15-.15V48.2c0-.075.075-.15.15-.15h1.2c.075 0 .15.075.15.15v1.95c0 .075 0 .15-.15.15ZM67.225 50.3h-1.2a.161.161 0 0 1-.15-.15V48.2c0-.075.075-.15.15-.15h1.2c.075 0 .15.075.15.15v1.95c0 .075 0 .15-.15.15ZM41.35 41.825h-1.2a.161.161 0 0 1-.15-.15v-1.95c0-.075.075-.15.15-.15h1.2c.075 0 .15.075.15.15v1.95c0 .075 0 .15-.15.15ZM75.85 41.825h-1.2a.161.161 0 0 1-.15-.15v-1.95c0-.075.075-.15.15-.15h1.2c.075 0 .15.075.15.15v1.95c0 .075 0 .15-.15.15ZM49.975 41.825h-1.2a.161.161 0 0 1-.15-.15v-1.95c0-.075.075-.15.15-.15h1.2c.075 0 .15.075.15.15v1.95c0 .075 0 .15-.15.15ZM58.6 41.825h-1.2a.161.161 0 0 1-.15-.15v-1.95c0-.075.075-.15.15-.15h1.2c.075 0 .15.075.15.15v1.95c0 .075 0 .15-.15.15ZM67.225 41.825h-1.2a.161.161 0 0 1-.15-.15v-1.95c0-.075.075-.15.15-.15h1.2c.075 0 .15.075.15.15v1.95c0 .075 0 .15-.15.15Z"/></g><g stroke-width="1.5"><path d="M49.975 33.425h-1.2a.161.161 0 0 1-.15-.15v-1.95c0-.075.075-.15.15-.15h1.2c.075 0 .15.075.15.15v1.95c0 .075 0 .15-.15.15ZM67.225 33.425h-1.2a.161.161 0 0 1-.15-.15v-1.95c0-.075.075-.15.15-.15h1.2c.075 0 .15.075.15.15v1.95c0 .075 0 .15-.15.15ZM41.35 50.3h-1.2a.161.161 0 0 1-.15-.15V48.2c0-.075.075-.15.15-.15h1.2c.075 0 .15.075.15.15v1.95c0 .075 0 .15-.15.15ZM75.85 50.3h-1.2a.161.161 0 0 1-.15-.15V48.2c0-.075.075-.15.15-.15h1.2c.075 0 .15.075.15.15v1.95c0 .075 0 .15-.15.15ZM49.975 58.7h-1.2a.161.161 0 0 1-.15-.15V56.6c0-.075.075-.15.15-.15h1.2c.075 0 .15.075.15.15v1.95c0 .075 0 .15-.15.15ZM58.6 58.7h-1.2a.161.161 0 0 1-.15-.15V56.6c0-.075.075-.15.15-.15h1.2c.075 0 .15.075.15.15v1.95c0 .075 0 .15-.15.15ZM58.6 67.175h-1.2a.161.161 0 0 1-.15-.15v-1.95c0-.075.075-.15.15-.15h1.2c.075 0 .15.075.15.15v1.95c0 .075 0 .15-.15.15ZM67.225 58.7h-1.2a.161.161 0 0 1-.15-.15V56.6c0-.075.075-.15.15-.15h1.2c.075 0 .15.075.15.15v1.95c0 .075 0 .15-.15.15ZM49.975 50.3h-1.2a.161.161 0 0 1-.15-.15V48.2c0-.075.075-.15.15-.15h1.2c.075 0 .15.075.15.15v1.95c0 .075 0 .15-.15.15ZM58.6 50.3h-1.2a.161.161 0 0 1-.15-.15V48.2c0-.075.075-.15.15-.15h1.2c.075 0 .15.075.15.15v1.95c0 .075 0 .15-.15.15ZM67.225 50.3h-1.2a.161.161 0 0 1-.15-.15V48.2c0-.075.075-.15.15-.15h1.2c.075 0 .15.075.15.15v1.95c0 .075 0 .15-.15.15ZM41.35 41.825h-1.2a.161.161 0 0 1-.15-.15v-1.95c0-.075.075-.15.15-.15h1.2c.075 0 .15.075.15.15v1.95c0 .075 0 .15-.15.15ZM75.85 41.825h-1.2a.161.161 0 0 1-.15-.15v-1.95c0-.075.075-.15.15-.15h1.2c.075 0 .15.075.15.15v1.95c0 .075 0 .15-.15.15ZM49.975 41.825h-1.2a.161.161 0 0 1-.15-.15v-1.95c0-.075.075-.15.15-.15h1.2c.075 0 .15.075.15.15v1.95c0 .075 0 .15-.15.15ZM58.6 41.825h-1.2a.161.161 0 0 1-.15-.15v-1.95c0-.075.075-.15.15-.15h1.2c.075 0 .15.075.15.15v1.95c0 .075 0 .15-.15.15ZM67.225 41.825h-1.2a.161.161 0 0 1-.15-.15v-1.95c0-.075.075-.15.15-.15h1.2c.075 0 .15.075.15.15v1.95c0 .075 0 .15-.15.15Z"/></g></g></g></svg>