<svg width="40" height="40" xmlns="http://www.w3.org/2000/svg"><g transform="translate(3.5 6)" fill="none" fill-rule="evenodd"><path stroke="#7C87A5" stroke-width=".22" fill="#E6E7E8" fill-rule="nonzero" stroke-linecap="round" stroke-linejoin="round" d="M19.11.11V1h-5.33V.11h.44v.22h.45V.11h3.55v.22h.45V.11z"/><path d="M30.66 1H2.22C1.24 1 .446 1.79.44 2.77V25a1.78 1.78 0 0 0 1.23 1.69 2 2 0 0 0 .55.08h28.44a2 2 0 0 0 .55-.08A1.78 1.78 0 0 0 32.44 25V2.77A1.78 1.78 0 0 0 30.66 1ZM3.11 23.54a1.11 1.11 0 1 1 0-2.22 1.11 1.11 0 0 1 0 2.22Zm6.27 0a1.11 1.11 0 1 1 0-2.22 1.11 1.11 0 0 1 0 2.22Zm7.06 0a1.11 1.11 0 1 1 0-2.22 1.11 1.11 0 0 1 0 2.22Zm7.06 0a1.11 1.11 0 1 1 0-2.22 1.11 1.11 0 0 1 0 2.22Zm6.27 0a1.11 1.11 0 1 1 0-2.22 1.11 1.11 0 0 1 0 2.22Z" stroke="#231F20" stroke-width=".89" fill="#231F20" fill-rule="nonzero" opacity=".1"/><path d="M30.66 1H2.22C1.24 1 .446 1.79.44 2.77V25a1.78 1.78 0 0 0 1.23 1.69 2 2 0 0 0 .55.08h28.44a2 2 0 0 0 .55-.08A1.78 1.78 0 0 0 32.44 25V2.77A1.78 1.78 0 0 0 30.66 1ZM3.11 23.54a1.11 1.11 0 1 1 0-2.22 1.11 1.11 0 0 1 0 2.22Zm6.27 0a1.11 1.11 0 1 1 0-2.22 1.11 1.11 0 0 1 0 2.22Zm7.06 0a1.11 1.11 0 1 1 0-2.22 1.11 1.11 0 0 1 0 2.22Zm7.06 0a1.11 1.11 0 1 1 0-2.22 1.11 1.11 0 0 1 0 2.22Zm6.27 0a1.11 1.11 0 1 1 0-2.22 1.11 1.11 0 0 1 0 2.22Z" fill="#414757" fill-rule="nonzero"/><path d="M.44 9V2.77C.446 1.79 1.24 1 2.22 1h6.22l-8 8ZM8.44 4.56V1H12zM12 3.67V1h2.67z" fill="#4C97FF" fill-rule="nonzero"/><path stroke="#4C97FF" stroke-width=".22" fill="#4C97FF" fill-rule="nonzero" stroke-linecap="round" stroke-linejoin="round" d="M28.44 9.89V7.22h2.67zM4.45 16.11v2.67H1.78z"/><rect fill="#FFF" fill-rule="nonzero" x=".89" y="12.56" width="1" height="1" rx=".44"/><rect fill="#FFF" fill-rule="nonzero" x="31.11" y="12.56" width="1" height="1" rx=".44"/><path d="M17.56 5.56a.31.31 0 1 0 0-.62.31.31 0 0 0 0 .62M15.3 4.94a.31.31 0 1 0 0 .62.31.31 0 0 0 0-.62" fill="#4C97FF" fill-rule="nonzero"/><path d="M15.3 4.33a.92.92 0 1 0 0 1.83h2.28a.92.92 0 1 0 0-1.83H15.3m2.28 2.44H15.3a1.52 1.52 0 1 1 0-3h2.28a1.52 1.52 0 1 1 0 3" fill="#4C97FF" fill-rule="nonzero"/><rect stroke="#231F20" stroke-width=".89" fill="#231F20" fill-rule="nonzero" opacity=".25" stroke-linecap="round" stroke-linejoin="round" x="2.22" y="10.78" width="4.44" height="4.44" rx=".44"/><rect stroke="#7C87A5" stroke-width=".22" fill="#E6E7E8" fill-rule="nonzero" stroke-linecap="round" stroke-linejoin="round" x="2.22" y="10.78" width="4.44" height="4.44" rx=".44"/><circle stroke="#231F20" stroke-width=".67" fill="#231F20" fill-rule="nonzero" opacity=".1" cx="4.44" cy="13" r="1"/><circle stroke="#414757" stroke-width=".22" fill="#414757" fill-rule="nonzero" cx="4.44" cy="13" r="1"/><rect stroke="#231F20" stroke-width=".89" fill="#231F20" fill-rule="nonzero" opacity=".25" stroke-linecap="round" stroke-linejoin="round" x="26.22" y="10.78" width="4.44" height="4.44" rx=".44"/><rect stroke="#7C87A5" stroke-width=".22" fill="#E6E7E8" fill-rule="nonzero" stroke-linecap="round" stroke-linejoin="round" x="26.22" y="10.78" width="4.44" height="4.44" rx=".44"/><circle stroke="#231F20" stroke-width=".67" fill="#231F20" fill-rule="nonzero" opacity=".1" cx="28.44" cy="13" r="1"/><circle stroke="#414757" stroke-width=".22" fill="#414757" fill-rule="nonzero" cx="28.44" cy="13" r="1"/><rect x=".11" y=".78" width="1" height="1" rx=".04" opacity=".5" transform="translate(11 8)" fill="#E6E7E8" fill-rule="nonzero"/><rect x=".11" y=".44" width="1" height="1" rx=".04" opacity=".25" transform="translate(11 9)" fill="#231F20" fill-rule="nonzero"/><rect fill="#E6E7E8" fill-rule="nonzero" x="11.11" y="9" width="1" height="1" rx=".04"/><rect x=".67" y=".78" width="1" height="1" rx=".04" opacity=".5" transform="translate(13 8)" fill="#E6E7E8" fill-rule="nonzero"/><rect x=".67" y=".44" width="1" height="1" rx=".04" opacity=".25" transform="translate(13 9)" fill="#231F20" fill-rule="nonzero"/><rect fill="#E6E7E8" fill-rule="nonzero" x="13.67" y="9" width="1" height="1" rx=".04"/><rect x=".22" y=".78" width="1" height="1" rx=".04" opacity=".5" transform="translate(16 8)" fill="#E6E7E8" fill-rule="nonzero"/><rect x=".22" y=".44" width="1" height="1" rx=".04" opacity=".25" transform="translate(16 9)" fill="#231F20" fill-rule="nonzero"/><rect fill="#E6E7E8" fill-rule="nonzero" x="16.22" y="9" width="1" height="1" rx=".04"/><rect x=".78" y=".78" width="1" height="1" rx=".04" opacity=".5" transform="translate(18 8)" fill="#E6E7E8" fill-rule="nonzero"/><rect x=".78" y=".44" width="1" height="1" rx=".04" opacity=".25" transform="translate(18 9)" fill="#231F20" fill-rule="nonzero"/><rect fill="#E6E7E8" fill-rule="nonzero" x="18.78" y="9" width="1" height="1" rx=".04"/><rect x=".33" y=".78" width="1" height="1" rx=".04" opacity=".5" transform="translate(21 8)" fill="#E6E7E8" fill-rule="nonzero"/><rect x=".33" y=".44" width="1" height="1" rx=".04" opacity=".25" transform="translate(21 9)" fill="#231F20" fill-rule="nonzero"/><rect fill="#E6E7E8" fill-rule="nonzero" x="21.33" y="9" width="1" height="1" rx=".04"/><rect x=".11" y=".28" width="1" height="1" rx=".04" opacity=".5" transform="translate(11 11)" fill="#E6E7E8" fill-rule="nonzero"/><rect x=".11" y=".94" width="1" height="1" rx=".04" opacity=".25" transform="translate(11 11)" fill="#231F20" fill-rule="nonzero"/><rect fill="#E6E7E8" fill-rule="nonzero" x="11.11" y="11.5" width="1" height="1" rx=".04"/><rect x=".67" y=".28" width="1" height="1" rx=".04" opacity=".5" transform="translate(13 11)" fill="#E6E7E8" fill-rule="nonzero"/><rect x=".67" y=".94" width="1" height="1" rx=".04" opacity=".25" transform="translate(13 11)" fill="#231F20" fill-rule="nonzero"/><rect fill="#E6E7E8" fill-rule="nonzero" x="13.67" y="11.5" width="1" height="1" rx=".04"/><rect x=".22" y=".28" width="1" height="1" rx=".04" opacity=".5" transform="translate(16 11)" fill="#E6E7E8" fill-rule="nonzero"/><rect x=".22" y=".94" width="1" height="1" rx=".04" opacity=".25" transform="translate(16 11)" fill="#231F20" fill-rule="nonzero"/><rect fill="#E6E7E8" fill-rule="nonzero" x="16.22" y="11.5" width="1" height="1" rx=".04"/><rect x=".78" y=".28" width="1" height="1" rx=".04" opacity=".5" transform="translate(18 11)" fill="#E6E7E8" fill-rule="nonzero"/><rect x=".78" y=".94" width="1" height="1" rx=".04" opacity=".25" transform="translate(18 11)" fill="#231F20" fill-rule="nonzero"/><rect fill="#E6E7E8" fill-rule="nonzero" x="18.78" y="11.5" width="1" height="1" rx=".04"/><rect x=".33" y=".28" width="1" height="1" rx=".04" opacity=".5" transform="translate(21 11)" fill="#E6E7E8" fill-rule="nonzero"/><rect x=".33" y=".94" width="1" height="1" rx=".04" opacity=".25" transform="translate(21 11)" fill="#231F20" fill-rule="nonzero"/><rect fill="#E6E7E8" fill-rule="nonzero" x="21.33" y="11.5" width="1" height="1" rx=".04"/><rect x=".11" y=".78" width="1" height="1" rx=".04" opacity=".5" transform="translate(11 13)" fill="#E6E7E8" fill-rule="nonzero"/><rect x=".11" y=".44" width="1" height="1" rx=".04" opacity=".25" transform="translate(11 14)" fill="#231F20" fill-rule="nonzero"/><rect fill="#E6E7E8" fill-rule="nonzero" x="11.11" y="14" width="1" height="1" rx=".04"/><rect x=".67" y=".78" width="1" height="1" rx=".04" opacity=".5" transform="translate(13 13)" fill="#E6E7E8" fill-rule="nonzero"/><rect x=".67" y=".44" width="1" height="1" rx=".04" opacity=".25" transform="translate(13 14)" fill="#231F20" fill-rule="nonzero"/><rect fill="#E6E7E8" fill-rule="nonzero" x="13.67" y="14" width="1" height="1" rx=".04"/><rect x=".22" y=".78" width="1" height="1" rx=".04" opacity=".5" transform="translate(16 13)" fill="#E6E7E8" fill-rule="nonzero"/><rect x=".22" y=".44" width="1" height="1" rx=".04" opacity=".25" transform="translate(16 14)" fill="#231F20" fill-rule="nonzero"/><rect fill="#E6E7E8" fill-rule="nonzero" x="16.22" y="14" width="1" height="1" rx=".04"/><rect x=".78" y=".78" width="1" height="1" rx=".04" opacity=".5" transform="translate(18 13)" fill="#E6E7E8" fill-rule="nonzero"/><rect x=".78" y=".44" width="1" height="1" rx=".04" opacity=".25" transform="translate(18 14)" fill="#231F20" fill-rule="nonzero"/><rect fill="#E6E7E8" fill-rule="nonzero" x="18.78" y="14" width="1" height="1" rx=".04"/><rect x=".33" y=".78" width="1" height="1" rx=".04" opacity=".5" transform="translate(21 13)" fill="#E6E7E8" fill-rule="nonzero"/><rect x=".33" y=".44" width="1" height="1" rx=".04" opacity=".25" transform="translate(21 14)" fill="#231F20" fill-rule="nonzero"/><rect fill="#E6E7E8" fill-rule="nonzero" x="21.33" y="14" width="1" height="1" rx=".04"/><rect x=".11" y=".28" width="1" height="1" rx=".04" opacity=".5" transform="translate(11 16)" fill="#E6E7E8" fill-rule="nonzero"/><rect x=".11" y=".94" width="1" height="1" rx=".04" opacity=".25" transform="translate(11 16)" fill="#231F20" fill-rule="nonzero"/><rect fill="#E6E7E8" fill-rule="nonzero" x="11.11" y="16.5" width="1" height="1" rx=".04"/><rect x=".67" y=".28" width="1" height="1" rx=".04" opacity=".5" transform="translate(13 16)" fill="#E6E7E8" fill-rule="nonzero"/><rect x=".67" y=".94" width="1" height="1" rx=".04" opacity=".25" transform="translate(13 16)" fill="#231F20" fill-rule="nonzero"/><rect fill="#E6E7E8" fill-rule="nonzero" x="13.67" y="16.5" width="1" height="1" rx=".04"/><rect x=".22" y=".28" width="1" height="1" rx=".04" opacity=".5" transform="translate(16 16)" fill="#E6E7E8" fill-rule="nonzero"/><rect x=".22" y=".94" width="1" height="1" rx=".04" opacity=".25" transform="translate(16 16)" fill="#231F20" fill-rule="nonzero"/><rect fill="#E6E7E8" fill-rule="nonzero" x="16.22" y="16.5" width="1" height="1" rx=".04"/><rect x=".78" y=".28" width="1" height="1" rx=".04" opacity=".5" transform="translate(18 16)" fill="#E6E7E8" fill-rule="nonzero"/><rect x=".78" y=".94" width="1" height="1" rx=".04" opacity=".25" transform="translate(18 16)" fill="#231F20" fill-rule="nonzero"/><rect fill="#E6E7E8" fill-rule="nonzero" x="18.78" y="16.5" width="1" height="1" rx=".04"/><rect x=".33" y=".28" width="1" height="1" rx=".04" opacity=".5" transform="translate(21 16)" fill="#E6E7E8" fill-rule="nonzero"/><rect x=".33" y=".94" width="1" height="1" rx=".04" opacity=".25" transform="translate(21 16)" fill="#231F20" fill-rule="nonzero"/><rect fill="#E6E7E8" fill-rule="nonzero" x="21.33" y="16.5" width="1" height="1" rx=".04"/><rect x=".11" y=".78" width="1" height="1" rx=".04" opacity=".5" transform="translate(11 18)" fill="#E6E7E8" fill-rule="nonzero"/><rect x=".11" y=".44" width="1" height="1" rx=".04" opacity=".25" transform="translate(11 19)" fill="#231F20" fill-rule="nonzero"/><rect fill="#E6E7E8" fill-rule="nonzero" x="11.11" y="19" width="1" height="1" rx=".04"/><rect x=".67" y=".78" width="1" height="1" rx=".04" opacity=".5" transform="translate(13 18)" fill="#E6E7E8" fill-rule="nonzero"/><rect x=".67" y=".44" width="1" height="1" rx=".04" opacity=".25" transform="translate(13 19)" fill="#231F20" fill-rule="nonzero"/><rect fill="#E6E7E8" fill-rule="nonzero" x="13.67" y="19" width="1" height="1" rx=".04"/><rect x=".22" y=".78" width="1" height="1" rx=".04" opacity=".5" transform="translate(16 18)" fill="#E6E7E8" fill-rule="nonzero"/><rect x=".22" y=".44" width="1" height="1" rx=".04" opacity=".25" transform="translate(16 19)" fill="#231F20" fill-rule="nonzero"/><rect fill="#E6E7E8" fill-rule="nonzero" x="16.22" y="19" width="1" height="1" rx=".04"/><rect x=".78" y=".78" width="1" height="1" rx=".04" opacity=".5" transform="translate(18 18)" fill="#E6E7E8" fill-rule="nonzero"/><rect x=".78" y=".44" width="1" height="1" rx=".04" opacity=".25" transform="translate(18 19)" fill="#231F20" fill-rule="nonzero"/><rect fill="#E6E7E8" fill-rule="nonzero" x="18.78" y="19" width="1" height="1" rx=".04"/><rect x=".33" y=".78" width="1" height="1" rx=".04" opacity=".5" transform="translate(21 18)" fill="#E6E7E8" fill-rule="nonzero"/><rect x=".33" y=".44" width="1" height="1" rx=".04" opacity=".25" transform="translate(21 19)" fill="#231F20" fill-rule="nonzero"/><rect fill="#E6E7E8" fill-rule="nonzero" x="21.33" y="19" width="1" height="1" rx=".04"/><path d="M1.44 23.67v2.91a1.76 1.76 0 0 1-.53-.41v-2.5h.53ZM2.08 26.77h.12v-3.1h-.53v3.02zM2.46 23.67h1v3.1h-1z" fill="#FFBF00" fill-rule="nonzero"/><path fill="#FFBF00" fill-rule="nonzero" d="M3.24 23.67h1v3.1h-1z"/><path fill="#FFBF00" fill-rule="nonzero" d="M4.03 23.67h1v3.1h-1z"/><path fill="#FFBF00" fill-rule="nonzero" d="M4.81 23.67h1v3.1h-1z"/><path fill="#FFBF00" fill-rule="nonzero" d="M5.59 23.67h1v3.1h-1z"/><path fill="#FFBF00" fill-rule="nonzero" d="M6.38 23.67h1v3.1h-1z"/><path fill="#FFBF00" fill-rule="nonzero" d="M7.16 23.67h1v3.1h-1z"/><path fill="#FFBF00" fill-rule="nonzero" d="M7.95 23.67h1v3.1h-1z"/><path fill="#FFBF00" fill-rule="nonzero" d="M8.73 23.67h1v3.1h-1z"/><path fill="#FFBF00" fill-rule="nonzero" d="M9.52 23.67h1v3.1h-1z"/><path fill="#FFBF00" fill-rule="nonzero" d="M10.3 23.67h1v3.1h-1z"/><path fill="#FFBF00" fill-rule="nonzero" d="M11.08 23.67h1v3.1h-1z"/><path fill="#FFBF00" fill-rule="nonzero" d="M11.87 23.67h1v3.1h-1z"/><path fill="#FFBF00" fill-rule="nonzero" d="M12.65 23.67h1v3.1h-1z"/><path fill="#FFBF00" fill-rule="nonzero" d="M13.44 23.67h1v3.1h-1z"/><path fill="#FFBF00" fill-rule="nonzero" d="M14.22 23.67h1v3.1h-1z"/><path fill="#FFBF00" fill-rule="nonzero" d="M15.01 23.67h1v3.1h-1z"/><path fill="#FFBF00" fill-rule="nonzero" d="M15.79 23.67h1v3.1h-1z"/><path fill="#FFBF00" fill-rule="nonzero" d="M16.58 23.67h1v3.1h-1z"/><path fill="#FFBF00" fill-rule="nonzero" d="M17.36 23.67h1v3.1h-1z"/><path fill="#FFBF00" fill-rule="nonzero" d="M18.14 23.67h1v3.1h-1z"/><path fill="#FFBF00" fill-rule="nonzero" d="M18.93 23.67h1v3.1h-1z"/><path fill="#FFBF00" fill-rule="nonzero" d="M19.71 23.67h1v3.1h-1z"/><path fill="#FFBF00" fill-rule="nonzero" d="M20.5 23.67h1v3.1h-1z"/><path fill="#FFBF00" fill-rule="nonzero" d="M21.28 23.67h1v3.1h-1z"/><path fill="#FFBF00" fill-rule="nonzero" d="M22.06 23.67h1v3.1h-1z"/><path fill="#FFBF00" fill-rule="nonzero" d="M22.85 23.67h1v3.1h-1z"/><path fill="#FFBF00" fill-rule="nonzero" d="M23.63 23.67h1v3.1h-1z"/><path fill="#FFBF00" fill-rule="nonzero" d="M24.42 23.67h1v3.1h-1z"/><path fill="#FFBF00" fill-rule="nonzero" d="M25.2 23.67h1v3.1h-1z"/><path fill="#FFBF00" fill-rule="nonzero" d="M25.99 23.67h1v3.1h-1z"/><path fill="#FFBF00" fill-rule="nonzero" d="M26.77 23.67h1v3.1h-1z"/><path fill="#FFBF00" fill-rule="nonzero" d="M27.56 23.67h1v3.1h-1z"/><path fill="#FFBF00" fill-rule="nonzero" d="M28.34 23.67h1v3.1h-1z"/><path fill="#FFBF00" fill-rule="nonzero" d="M29.12 23.67h1v3.1h-1z"/><path fill="#FFBF00" fill-rule="nonzero" d="M29.91 23.67h1v3.1h-1z"/><path fill="#FFBF00" fill-rule="nonzero" d="M30.81 26.77h-.12v-3.1h.53v3.02zM32 23.67v2.5a1.76 1.76 0 0 1-.53.41v-2.91H32ZM3.11 23.54a1.11 1.11 0 1 1 0-2.22 1.11 1.11 0 0 1 0 2.22Zm-.89 3.23h2.32v-4.33a1.44 1.44 0 0 0-2.87 0v4.26l.55.07ZM10.44 21.44a1.44 1.44 0 0 0-2.46 1v4.34h2.88v-4.34a1.43 1.43 0 0 0-.42-1Zm-1 2.12a1.11 1.11 0 1 1 1.05-1.12c-.005.61-.5 1.1-1.11 1.1l.06.02ZM17.44 21.44a1.44 1.44 0 0 0-2.46 1v4.34h2.88v-4.34a1.43 1.43 0 0 0-.42-1Zm-1 2.1a1.11 1.11 0 1 1 0-2.22 1.11 1.11 0 0 1 0 2.22ZM24.52 21.44a1.44 1.44 0 0 0-2.46 1v4.34h2.88v-4.34a1.43 1.43 0 0 0-.42-1Zm-1 2.12a1.11 1.11 0 1 1 0-2.22 1.11 1.11 0 0 1 0 2.22Z"/><path d="M30.79 21.44a1.44 1.44 0 0 0-2.45 1v4.34h2.32l.55-.08v-4.26a1.43 1.43 0 0 0-.42-1Zm-1 2.12a1.11 1.11 0 1 1 1.09-1.12c-.005.61-.5 1.1-1.11 1.1l.02.02Z" fill="#FFBF00" fill-rule="nonzero"/><path d="m2.98 24.828.003.08a.432.432 0 0 0 .014.092c.008.029.02.054.037.075a.09.09 0 0 0 .073.03c.033 0 .058-.01.075-.03A.191.191 0 0 0 3.22 25a.432.432 0 0 0 .014-.091 1.752 1.752 0 0 0-.003-.187.541.541 0 0 0-.01-.06.182.182 0 0 0-.023-.052.12.12 0 0 0-.036-.038.098.098 0 0 0-.055-.015.095.095 0 0 0-.053.015.116.116 0 0 0-.036.038.205.205 0 0 0-.022.052.41.41 0 0 0-.015.118v.048Zm-.157 0c0-.075.008-.139.023-.19a.343.343 0 0 1 .062-.124.22.22 0 0 1 .09-.067.303.303 0 0 1 .22 0 .225.225 0 0 1 .09.067.337.337 0 0 1 .063.124.682.682 0 0 1 .023.19.709.709 0 0 1-.023.195.337.337 0 0 1-.062.125.225.225 0 0 1-.091.066.303.303 0 0 1-.22 0 .22.22 0 0 1-.09-.066.343.343 0 0 1-.062-.125.709.709 0 0 1-.023-.195ZM3.736 18.234h.206l-.1-.291H3.84l-.104.29Zm.017-.487h.179l.296.793h-.18l-.06-.176H3.69l-.062.176h-.176l.3-.793ZM28.82 7.798h.177a.125.125 0 0 0 .077-.022c.02-.015.03-.039.03-.072a.092.092 0 0 0-.01-.046.074.074 0 0 0-.027-.027.112.112 0 0 0-.038-.014.254.254 0 0 0-.045-.004h-.163v.185Zm-.173-.32h.373c.037 0 .072.003.103.01a.223.223 0 0 1 .08.032c.022.015.04.036.051.06a.213.213 0 0 1 .019.094c0 .04-.01.073-.028.1a.198.198 0 0 1-.08.065.19.19 0 0 1 .11.074.22.22 0 0 1 .035.127.202.202 0 0 1-.086.175.278.278 0 0 1-.09.042.405.405 0 0 1-.103.013h-.384v-.793Zm.174.657h.186a.233.233 0 0 0 .05-.005.12.12 0 0 0 .04-.017.084.084 0 0 0 .029-.032.109.109 0 0 0 .01-.05c0-.041-.011-.07-.034-.088a.147.147 0 0 0-.091-.026h-.19v.218ZM9.455 25.22h-.158v-.504h-.195v-.119a.373.373 0 0 0 .08-.006.207.207 0 0 0 .068-.025.169.169 0 0 0 .052-.049.172.172 0 0 0 .028-.074h.125v.777ZM16.181 24.742a.373.373 0 0 1 .016-.124.288.288 0 0 1 .053-.1.241.241 0 0 1 .09-.067.303.303 0 0 1 .123-.024.31.31 0 0 1 .102.017c.032.011.06.027.084.048a.227.227 0 0 1 .08.179.246.246 0 0 1-.068.175.425.425 0 0 1-.07.06 5.9 5.9 0 0 1-.08.053 1.032 1.032 0 0 0-.078.056.352.352 0 0 0-.067.07h.368v.135h-.57c0-.045.006-.084.019-.118a.313.313 0 0 1 .052-.089.461.461 0 0 1 .079-.073 3.401 3.401 0 0 1 .149-.104.362.362 0 0 0 .053-.04.216.216 0 0 0 .04-.05.124.124 0 0 0 .016-.063.117.117 0 0 0-.033-.088.116.116 0 0 0-.084-.032.102.102 0 0 0-.058.016.12.12 0 0 0-.038.042.195.195 0 0 0-.02.058.33.33 0 0 0-.007.063h-.15ZM23.213 24.757a.333.333 0 0 0 .054 0 .171.171 0 0 0 .054-.013.103.103 0 0 0 .041-.03.082.082 0 0 0 .016-.053.092.092 0 0 0-.033-.077.12.12 0 0 0-.076-.027c-.04 0-.07.013-.09.04a.153.153 0 0 0-.03.1h-.15a.33.33 0 0 1 .021-.11.24.24 0 0 1 .138-.14.325.325 0 0 1 .202-.006c.032.01.06.023.085.042a.225.225 0 0 1 .06.068.18.18 0 0 1 .023.092c0 .038-.009.07-.027.1a.136.136 0 0 1-.081.059v.002a.17.17 0 0 1 .1.062c.025.032.037.07.037.114a.24.24 0 0 1-.18.238.359.359 0 0 1-.228-.002.244.244 0 0 1-.15-.143.311.311 0 0 1-.019-.12h.15c0 .02.004.04.01.059a.146.146 0 0 0 .025.049.121.121 0 0 0 .101.045.13.13 0 0 0 .09-.033.114.114 0 0 0 .037-.09.113.113 0 0 0-.017-.067.099.099 0 0 0-.044-.034.184.184 0 0 0-.058-.012 1.153 1.153 0 0 0-.06-.002v-.11Zm.742.463h-.176l-.196-.574h.165l.121.392h.002l.121-.392h.157l-.194.574ZM29.18 25.13a.261.261 0 0 1-.218.108.406.406 0 0 1-.164-.032.35.35 0 0 1-.2-.217.495.495 0 0 1 0-.326.396.396 0 0 1 .077-.133.35.35 0 0 1 .123-.09.4.4 0 0 1 .385.04.295.295 0 0 1 .113.208h-.167a.167.167 0 0 0-.06-.1.174.174 0 0 0-.107-.033.189.189 0 0 0-.166.084.268.268 0 0 0-.038.087.434.434 0 0 0 0 .198c.008.032.02.06.037.085a.19.19 0 0 0 .167.083.19.19 0 0 0 .134-.043.19.19 0 0 0 .054-.128h-.175v-.13h.333v.429h-.11l-.019-.09Zm.27-.703h.172l.331.532h.002v-.532h.163v.793h-.174l-.33-.53h-.002v.53h-.163v-.793Zm.996.646h.155c.025 0 .05-.004.074-.012a.161.161 0 0 0 .063-.04.204.204 0 0 0 .044-.074.462.462 0 0 0 .005-.22.216.216 0 0 0-.038-.082.17.17 0 0 0-.07-.053.281.281 0 0 0-.109-.018h-.124v.5Zm-.174-.646h.341c.052 0 .1.009.143.025a.31.31 0 0 1 .19.195.549.549 0 0 1 .005.332.352.352 0 0 1-.067.127.315.315 0 0 1-.112.083.38.38 0 0 1-.159.031h-.341v-.793Z" fill="#575E75"/></g></svg>